<svg width="286" height="180" viewBox="0 0 286 180" fill="none" xmlns="http://www.w3.org/2000/svg">
<path d="M128.663 0.103516H0.918213V67.1786H128.663V0.103516Z" fill="#F2F2F2"/>
<path d="M128.584 0H0.839844V7.77585H128.584V0Z" fill="#E6E6E6"/>
<path d="M126.271 10.9285H3.80664V63.6429H126.271V10.9285Z" fill="white"/>
<path d="M12.9452 5.15435C13.6556 5.15435 14.2315 4.57846 14.2315 3.86807C14.2315 3.15767 13.6556 2.58179 12.9452 2.58179C12.2348 2.58179 11.6589 3.15767 11.6589 3.86807C11.6589 4.57846 12.2348 5.15435 12.9452 5.15435Z" fill="white"/>
<path d="M17.8278 5.15435C18.5382 5.15435 19.1141 4.57846 19.1141 3.86807C19.1141 3.15767 18.5382 2.58179 17.8278 2.58179C17.1174 2.58179 16.5415 3.15767 16.5415 3.86807C16.5415 4.57846 17.1174 5.15435 17.8278 5.15435Z" fill="white"/>
<path d="M8.04995 5.15435C8.76034 5.15435 9.33623 4.57846 9.33623 3.86807C9.33623 3.15767 8.76034 2.58179 8.04995 2.58179C7.33956 2.58179 6.76367 3.15767 6.76367 3.86807C6.76367 4.57846 7.33956 5.15435 8.04995 5.15435Z" fill="white"/>
<path d="M101.689 26.3762H31.2681V29.5148H101.689V26.3762Z" fill="#F2F2F2"/>
<path d="M56.3764 34.2227H31.2681V37.3612H56.3764V34.2227Z" fill="#F2F2F2"/>
<path d="M81.2888 42.0691H31.2681V45.2077H81.2888V42.0691Z" fill="#F2F2F2"/>
<path d="M150.057 87.95H29.8418V151.072H150.057V87.95Z" fill="#F2F2F2"/>
<path d="M149.984 87.8528H29.7686V95.1703H149.984V87.8528Z" fill="#E6E6E6"/>
<path d="M147.807 97.7146H32.377V147.858H147.807V97.7146Z" fill="white"/>
<path d="M41.1599 92.7029C41.8285 92.7029 42.3704 92.161 42.3704 91.4925C42.3704 90.8239 41.8285 90.282 41.1599 90.282C40.4914 90.282 39.9495 90.8239 39.9495 91.4925C39.9495 92.161 40.4914 92.7029 41.1599 92.7029Z" fill="white"/>
<path d="M45.7547 92.7029C46.4232 92.7029 46.9651 92.161 46.9651 91.4925C46.9651 90.8239 46.4232 90.282 45.7547 90.282C45.0861 90.282 44.5442 90.8239 44.5442 91.4925C44.5442 92.161 45.0861 92.7029 45.7547 92.7029Z" fill="white"/>
<path d="M36.5537 92.7029C37.2223 92.7029 37.7642 92.161 37.7642 91.4925C37.7642 90.8239 37.2223 90.282 36.5537 90.282C35.8852 90.282 35.3433 90.8239 35.3433 91.4925C35.3433 92.161 35.8852 92.7029 36.5537 92.7029Z" fill="white"/>
<path d="M230.309 27.6631H87.7129V102.536H230.309V27.6631Z" fill="#E6E6E6"/>
<path d="M230.221 27.5471H87.6255V36.227H230.221V27.5471Z" fill="#6C63FF"/>
<path d="M226.879 38.8933H90.9143V98.3577H226.879V38.8933Z" fill="white"/>
<path d="M101.138 33.3008C101.931 33.3008 102.574 32.658 102.574 31.865C102.574 31.072 101.931 30.4292 101.138 30.4292C100.345 30.4292 99.7021 31.072 99.7021 31.865C99.7021 32.658 100.345 33.3008 101.138 33.3008Z" fill="white"/>
<path d="M106.588 33.3008C107.381 33.3008 108.024 32.658 108.024 31.865C108.024 31.072 107.381 30.4292 106.588 30.4292C105.795 30.4292 105.153 31.072 105.153 31.865C105.153 32.658 105.795 33.3008 106.588 33.3008Z" fill="white"/>
<path d="M95.6736 33.3008C96.4666 33.3008 97.1094 32.658 97.1094 31.865C97.1094 31.072 96.4666 30.4292 95.6736 30.4292C94.8806 30.4292 94.2378 31.072 94.2378 31.865C94.2378 32.658 94.8806 33.3008 95.6736 33.3008Z" fill="white"/>
<path d="M211.092 54.2043H106.843V58.8506H211.092V54.2043Z" fill="#E6E6E6"/>
<path d="M144.012 65.8198H106.843V70.4661H144.012V65.8198Z" fill="#E6E6E6"/>
<path d="M180.892 77.4355H106.843V82.0818H180.892V77.4355Z" fill="#E6E6E6"/>
<path d="M132.057 112.597H53.4487V116.101H132.057V112.597Z" fill="#F2F2F2"/>
<path d="M81.4762 121.355H53.4487V124.859H81.4762V121.355Z" fill="#F2F2F2"/>
<path d="M109.285 130.114H53.4487V133.617H109.285V130.114Z" fill="#F2F2F2"/>
<path d="M162.307 28.6765L155.605 32.3893L162.753 29.8687L162.307 28.6765Z" fill="white"/>
<path d="M165.328 32.3295C166.31 32.0105 166.586 30.1478 165.943 28.169C165.3 26.1903 163.983 24.8448 163.001 25.1638C162.019 25.4828 161.743 27.3455 162.386 29.3243C163.029 31.303 164.346 32.6485 165.328 32.3295Z" fill="#3F3D56"/>
<path d="M164.595 26.5716L169.041 24.967L169.986 27.5841L165.683 30.4902L164.595 26.5716Z" fill="#3F3D56"/>
<path d="M167.933 27.8565C168.108 28.4648 168.415 29.0274 168.83 29.5046C169.246 29.9818 169.762 30.3621 170.34 30.6185C170.919 30.875 171.547 31.0014 172.18 30.989C172.813 30.9766 173.435 30.8255 174.003 30.5465L184.938 41.3707L186.506 33.5303L175.881 24.4535C175.349 23.5301 174.497 22.8339 173.486 22.4969C172.475 22.1598 171.375 22.2054 170.396 22.6248C169.416 23.0443 168.624 23.8086 168.171 24.7728C167.717 25.737 167.632 26.8342 167.933 27.8565Z" fill="#A0616A"/>
<path d="M251.266 96.1488C251.683 95.6728 251.991 95.1112 252.168 94.5034C252.345 93.8956 252.386 93.2565 252.289 92.631C252.192 92.0055 251.959 91.4088 251.607 90.8831C251.254 90.3574 250.791 89.9153 250.249 89.5881L253.446 74.5376L246.002 77.4563L244.107 91.3011C243.618 92.2477 243.493 93.341 243.756 94.3738C244.018 95.4066 244.651 96.307 245.533 96.9046C246.416 97.5021 247.487 97.7552 248.543 97.6159C249.6 97.4766 250.569 96.9546 251.266 96.1488Z" fill="#A0616A"/>
<path d="M215.243 174.586H209.964L207.453 154.225L215.244 154.225L215.243 174.586Z" fill="#A0616A"/>
<path d="M216.589 179.703L199.568 179.702V179.487C199.568 178.617 199.739 177.755 200.072 176.952C200.405 176.148 200.893 175.418 201.509 174.802C202.124 174.187 202.854 173.699 203.658 173.366C204.462 173.033 205.323 172.862 206.193 172.862H206.193L216.589 172.862L216.589 179.703Z" fill="#2F2E41"/>
<path d="M241.077 174.586H235.798L233.287 154.225L241.078 154.225L241.077 174.586Z" fill="#A0616A"/>
<path d="M242.423 179.703L225.403 179.702V179.487C225.403 178.617 225.574 177.755 225.907 176.952C226.24 176.148 226.728 175.418 227.343 174.802C227.958 174.187 228.689 173.699 229.493 173.366C230.296 173.033 231.158 172.862 232.028 172.862H232.028L242.424 172.862L242.423 179.703Z" fill="#2F2E41"/>
<path d="M215.793 163.954L208.32 163.656C207.811 163.634 207.33 163.412 206.982 163.039C206.634 162.665 206.447 162.17 206.461 161.66L208.566 92.6062L208.704 92.5566C221.8 87.8191 232.634 88.1773 241.826 93.6502L241.929 93.7116L243.19 160.967C243.195 161.225 243.148 161.481 243.053 161.72C242.958 161.959 242.816 162.177 242.636 162.361C242.455 162.545 242.24 162.691 242.002 162.791C241.765 162.89 241.51 162.942 241.253 162.942H234.952C234.503 162.941 234.068 162.785 233.721 162.499C233.375 162.214 233.138 161.818 233.05 161.378L224.467 117.714C224.437 117.563 224.355 117.428 224.234 117.332C224.114 117.237 223.963 117.187 223.809 117.193C223.656 117.199 223.509 117.259 223.396 117.363C223.283 117.467 223.21 117.609 223.192 117.761L217.794 162.252C217.734 162.721 217.506 163.153 217.152 163.466C216.798 163.78 216.342 163.954 215.869 163.956C215.844 163.956 215.818 163.955 215.793 163.954Z" fill="#2F2E41"/>
<path d="M228.135 30.752C233.26 27.9505 235.143 21.525 232.341 16.4003C229.54 11.2755 223.114 9.39206 217.99 12.1936C212.865 14.995 210.982 21.4206 213.783 26.5454C216.584 31.6701 223.01 33.5535 228.135 30.752Z" fill="#A0616A"/>
<path d="M176.077 31.9921C176.247 31.636 176.521 31.3399 176.863 31.1433L180.052 29.312C180.398 29.1146 180.796 29.028 181.192 29.0642C181.589 29.1003 181.965 29.2574 182.269 29.5141L192.865 38.4911L217.221 45.3195C217.964 45.6675 218.63 46.1585 219.183 46.7644C219.736 47.3703 220.164 48.0792 220.443 48.8506C220.722 49.622 220.845 50.4408 220.808 51.2601C220.77 52.0795 220.571 52.8833 220.222 53.6257C219.873 54.368 219.381 55.0344 218.775 55.5866C218.169 56.1389 217.459 56.5662 216.687 56.8441C215.916 57.122 215.097 57.2451 214.278 57.2064C213.458 57.1676 212.655 56.9677 211.913 56.6182L196.355 53.1158C191.633 52.0535 187.457 49.3122 184.605 45.4018L176.262 33.9656C176.102 33.7456 175.989 33.4944 175.933 33.2282C175.876 32.962 175.876 32.6869 175.932 32.4206C175.963 32.2726 176.012 32.1287 176.077 31.9921Z" fill="#3F3D56"/>
<path d="M250.814 86.4047C250.443 86.5383 250.04 86.5558 249.659 86.4546L246.105 85.5095C245.72 85.4062 245.377 85.1874 245.121 84.8825C244.864 84.5777 244.708 84.2015 244.673 83.8049L243.469 69.9694L230.981 47.9721C230.699 47.2021 230.571 46.3839 230.605 45.5644C230.639 44.7449 230.834 43.9401 231.18 43.1961C231.525 42.4521 232.013 41.7834 232.617 41.2283C233.221 40.6732 233.928 40.2425 234.699 39.9609C235.469 39.6793 236.287 39.5523 237.107 39.5872C237.926 39.622 238.731 39.818 239.474 40.164C240.218 40.51 240.886 40.9991 241.441 41.6035C241.995 42.2078 242.425 42.9155 242.706 43.6862L251.288 57.1273C253.893 61.2064 254.928 66.0929 254.2 70.8779L252.073 84.8733C252.032 85.1423 251.934 85.3997 251.787 85.6288C251.64 85.8578 251.447 86.0533 251.219 86.2026C251.093 86.2857 250.957 86.3535 250.814 86.4047Z" fill="#3F3D56"/>
<path d="M211.496 40.2527C213.312 38.2608 215.552 36.7021 218.052 35.6916C220.551 34.6811 223.245 34.2446 225.936 34.4144C226.112 34.4253 226.289 34.4377 226.464 34.4514H226.464C229.014 34.653 231.492 35.3967 233.731 36.6328C235.971 37.8688 237.92 39.5687 239.45 41.6189C241.005 43.6976 242.099 46.0845 242.657 48.6198C243.216 51.1551 243.227 53.7805 242.69 56.3204C240.639 66.0272 241.158 76.101 244.195 85.5457L247.032 94.3547C247.123 94.637 247.148 94.9364 247.105 95.2298C247.062 95.5232 246.953 95.8028 246.784 96.0471C246.616 96.2914 246.394 96.4938 246.135 96.6387C245.877 96.7836 245.588 96.8672 245.292 96.883L230.788 97.6628L227.077 91.2518V97.8624L209.449 98.8101C209.414 98.8122 209.379 98.813 209.344 98.813C209.077 98.8129 208.812 98.7575 208.567 98.6501C208.322 98.5427 208.102 98.3858 207.921 98.1891C207.739 97.9925 207.601 97.7604 207.513 97.5076C207.426 97.2547 207.392 96.9865 207.414 96.7199L209.406 72.0131L206.907 55.2327C206.502 52.5515 206.705 49.8138 207.499 47.2212C208.293 44.6286 209.659 42.2473 211.496 40.2527Z" fill="#3F3D56"/>
<path d="M230.412 31.5681C229.433 32.1315 225.563 32.505 225.287 31.4096L225.281 31.3855C225.09 30.5829 225.249 29.7448 225.304 28.9213C225.359 28.0979 225.278 27.1933 224.718 26.5879C223.672 25.4593 221.812 26.0576 220.301 25.7723C219.415 25.5746 218.632 25.0611 218.098 24.3278C217.564 23.5945 217.315 22.6916 217.399 21.7882C217.42 21.6171 217.454 21.4458 217.492 21.2745C217.586 20.8406 217.579 20.3908 217.47 19.9602C217.362 19.5296 217.155 19.1301 216.866 18.7929C216.577 18.4558 216.214 18.1902 215.805 18.0171C215.396 17.8439 214.953 17.7679 214.509 17.795C212.982 17.8823 211.333 18.3452 210.069 17.2136C209.091 16.3386 208.853 14.0609 209.282 12.8213C210.004 10.738 214.627 9.64744 216.646 9.0479C219.142 8.32657 221.768 8.17062 224.333 8.5914C226.897 9.01217 229.335 9.9991 231.47 11.4804C232.745 12.3791 233.936 13.5083 234.479 14.9705C235.023 16.4327 234.761 18.2774 233.535 19.2426C234.485 20.2483 235.154 21.4859 235.475 22.8315C235.796 24.1771 235.757 25.5834 235.364 26.9095C234.758 28.8598 231.87 30.7295 230.412 31.5681Z" fill="#2F2E41"/>
<path d="M284.839 180H162.374C162.289 180 162.207 179.966 162.147 179.906C162.087 179.846 162.053 179.764 162.053 179.679C162.053 179.593 162.087 179.512 162.147 179.451C162.207 179.391 162.289 179.357 162.374 179.357H284.839C284.924 179.357 285.006 179.391 285.066 179.451C285.126 179.512 285.16 179.593 285.16 179.679C285.16 179.764 285.126 179.846 285.066 179.906C285.006 179.966 284.924 180 284.839 180Z" fill="#3F3D56"/>
</svg>
