<svg width="20" height="20" viewBox="0 0 20 20" fill="none" xmlns="http://www.w3.org/2000/svg">
  <g clip-path="url(#clip0_1894_7330)">
    <path d="M0 0.666666L0 19.3333C0 19.7333 0.266667 20 0.666667 20H19.3333C19.7333 20 20 19.7333 20 19.3333V0.666666C20 0.266666 19.7333 0 19.3333 0H0.666667C0.266667 0 0 0.266666 0 0.666666ZM14.9741 14.6979H16.2964C16.6743 14.6979 16.9261 14.9497 16.9261 15.3276C16.9261 15.7055 16.6743 15.9573 16.2964 15.9573H14.9741C14.7223 17.0278 13.7147 17.8461 12.5185 17.8461C11.3223 17.8461 10.3779 17.0274 10.0629 15.9573H3.70362C3.32571 15.9573 3.0739 15.7055 3.0739 15.3276C3.0739 14.9497 3.32571 14.6979 3.70362 14.6979H10.0629C10.3147 13.6274 11.3223 12.8091 12.5185 12.8091C13.7147 12.8091 14.659 13.6278 14.9741 14.6979ZM16.2964 9.19429C16.6743 9.19429 16.9261 9.4461 16.9261 9.824C16.9261 10.2019 16.6743 10.4537 16.2964 10.4537L9.93714 10.4537C9.68533 11.5242 8.67771 12.3425 7.48152 12.3425C6.28533 12.3425 5.34095 11.5238 5.0259 10.4537H3.70362C3.32571 10.4537 3.0739 10.2019 3.0739 9.824C3.0739 9.4461 3.32571 9.19429 3.70362 9.19429H5.0259C5.27771 8.12381 6.28533 7.30552 7.48152 7.30552C8.67771 7.30552 9.6221 8.12419 9.93714 9.19429L16.2964 9.19429ZM14.9741 3.88724H16.2964C16.6743 3.88724 16.9261 4.13905 16.9261 4.51695C16.9261 4.89486 16.6743 5.14667 16.2964 5.14667H14.9741C14.7223 6.21714 13.7147 7.03543 12.5185 7.03543C11.3223 7.03543 10.3779 6.21676 10.0629 5.14667H3.70362C3.32571 5.14667 3.0739 4.89486 3.0739 4.51695C3.0739 4.13905 3.32571 3.88724 3.70362 3.88724H10.0629C10.3147 2.81676 11.3223 1.99848 12.5185 1.99848C13.7147 1.99848 14.659 2.81714 14.9741 3.88724Z" fill="currentColor"/>
  </g>
  <defs>
    <clipPath id="clip0_1894_7330">
      <rect width="20" height="20" fill="white" transform="matrix(0 -1 1 0 0 20)"/>
    </clipPath>
  </defs>
</svg>
