<svg width="22" height="21" viewBox="0 0 22 21" fill="none" xmlns="http://www.w3.org/2000/svg">
  <path d="M1.26923 0.25C1.06522 0.25 0.869561 0.331044 0.725302 0.475302C0.581044 0.619561 0.5 0.815218 0.5 1.01923C0.5 1.22324 0.581044 1.4189 0.725302 1.56316C0.869561 1.70742 1.06522 1.78846 1.26923 1.78846H2.69077C2.86513 1.78846 3.01692 1.90538 3.06205 2.07359L5.68564 11.9115C4.86161 12.1262 4.13207 12.6082 3.61128 13.2819C3.09049 13.9556 2.80787 14.7831 2.80769 15.6346C2.80769 16.0592 3.15231 16.4038 3.57692 16.4038H19.7308C19.9348 16.4038 20.1304 16.3228 20.2747 16.1785C20.419 16.0343 20.5 15.8386 20.5 15.6346C20.5 15.4306 20.419 15.2349 20.2747 15.0907C20.1304 14.9464 19.9348 14.8654 19.7308 14.8654H4.47744C4.63655 14.4153 4.9313 14.0257 5.32109 13.7502C5.71087 13.4747 6.17651 13.3268 6.65385 13.3269H18.1595C18.3036 13.3269 18.4448 13.2865 18.567 13.2101C18.6892 13.1338 18.7876 13.0246 18.8508 12.8951C20.0217 10.4922 21.0358 8.01586 21.8867 5.48179C21.9203 5.38155 21.9329 5.27545 21.9236 5.17012C21.9144 5.06479 21.8836 4.96249 21.8331 4.86962C21.7825 4.77674 21.7134 4.69528 21.63 4.63031C21.5465 4.56535 21.4506 4.51829 21.3482 4.49205C15.9388 3.11272 10.3688 2.46524 4.78718 2.56692L4.54923 1.67769C4.44006 1.2682 4.19868 0.906229 3.8626 0.64805C3.52652 0.38987 3.11457 0.249937 2.69077 0.25H1.26923ZM2.80769 18.7115C2.80769 18.3035 2.96978 17.9122 3.2583 17.6237C3.54681 17.3352 3.93813 17.1731 4.34615 17.1731C4.75418 17.1731 5.14549 17.3352 5.43401 17.6237C5.72253 17.9122 5.88461 18.3035 5.88461 18.7115C5.88461 19.1196 5.72253 19.5109 5.43401 19.7994C5.14549 20.0879 4.75418 20.25 4.34615 20.25C3.93813 20.25 3.54681 20.0879 3.2583 19.7994C2.96978 19.5109 2.80769 19.1196 2.80769 18.7115ZM15.8846 18.7115C15.8846 18.3035 16.0467 17.9122 16.3352 17.6237C16.6237 17.3352 17.0151 17.1731 17.4231 17.1731C17.8311 17.1731 18.2224 17.3352 18.5109 17.6237C18.7994 17.9122 18.9615 18.3035 18.9615 18.7115C18.9615 19.1196 18.7994 19.5109 18.5109 19.7994C18.2224 20.0879 17.8311 20.25 17.4231 20.25C17.0151 20.25 16.6237 20.0879 16.3352 19.7994C16.0467 19.5109 15.8846 19.1196 15.8846 18.7115Z" fill="currentColor"/>
</svg>
