<svg width="15" height="23" viewBox="0 0 15 23" fill="none" xmlns="http://www.w3.org/2000/svg">
  <g clip-path="url(#clip0_1887_7084)">
    <path d="M10.4378 2.4323H13.4786C13.8968 2.4323 14.2779 2.60322 14.5531 2.87881C14.8287 3.1544 14.9996 3.53508 14.9996 3.95332V21.1817C14.9996 21.5986 14.8283 21.9793 14.5523 22.2553C14.2775 22.5318 13.8968 22.7027 13.4782 22.7027H1.52106C1.10409 22.7027 0.724254 22.5318 0.446977 22.2545C0.170543 21.9776 -0.00038147 21.5978 -0.00038147 21.1812V3.95332C-0.00038147 3.53508 0.170543 3.15398 0.446133 2.87881L0.475675 2.8518C0.749154 2.59183 1.11759 2.4323 1.52064 2.4323H4.56183V1.80558C4.56183 1.54476 4.77369 1.3329 5.03451 1.3329H6.01743C6.09339 1.0936 6.22634 0.879207 6.39979 0.706173C6.68129 0.424675 7.07041 0.250374 7.4992 0.250374C7.92798 0.250374 8.31752 0.424675 8.59902 0.706173C8.77248 0.879629 8.905 1.09402 8.98139 1.3329H9.96389C10.2247 1.3329 10.4366 1.54476 10.4366 1.80558V2.4323H10.4378ZM8.20779 6.84468H12.3661C12.6269 6.84468 12.8388 6.63282 12.8388 6.372C12.8388 6.11119 12.6269 5.89932 12.3661 5.89932H8.20779C7.94698 5.89932 7.73511 6.11119 7.73511 6.372C7.73511 6.63282 7.94698 6.84468 8.20779 6.84468ZM8.20779 18.6625H12.3661C12.6269 18.6625 12.8388 18.4507 12.8388 18.1899C12.8388 17.929 12.6269 17.7172 12.3661 17.7172H8.20779C7.94698 17.7172 7.73511 17.929 7.73511 18.1899C7.73511 18.4507 7.94698 18.6625 8.20779 18.6625ZM6.61841 20.3448H12.3657C12.6265 20.3448 12.8384 20.1329 12.8384 19.8721C12.8384 19.6113 12.6265 19.3994 12.3657 19.3994H6.61841C6.35759 19.3994 6.14573 19.6113 6.14573 19.8721C6.14573 20.1329 6.35759 20.3448 6.61841 20.3448ZM8.20779 12.7536H12.3661C12.6269 12.7536 12.8388 12.5417 12.8388 12.2809C12.8388 12.0201 12.6269 11.8082 12.3661 11.8082H8.20779C7.94698 11.8082 7.73511 12.0201 7.73511 12.2809C7.73511 12.5417 7.94698 12.7536 8.20779 12.7536ZM6.61841 14.4358H12.3657C12.6265 14.4358 12.8384 14.224 12.8384 13.9632C12.8384 13.7023 12.6265 13.4905 12.3657 13.4905H6.61841C6.35759 13.4905 6.14573 13.7023 6.14573 13.9632C6.14573 14.224 6.35759 14.4358 6.61841 14.4358ZM6.61841 8.52692H12.3657C12.6265 8.52692 12.8384 8.31506 12.8384 8.05424C12.8384 7.79342 12.6265 7.58156 12.3657 7.58156H6.61841C6.35759 7.58156 6.14573 7.79342 6.14573 8.05424C6.14573 8.31506 6.35759 8.52692 6.61841 8.52692ZM3.47593 5.8989C3.1134 5.8989 2.78506 6.04577 2.54745 6.2838C2.30942 6.52183 2.16255 6.85017 2.16255 7.21228C2.16255 7.57439 2.29803 7.87488 2.51917 8.10995L2.54787 8.14076C2.7859 8.37879 3.11424 8.52565 3.47635 8.52565C3.83846 8.52565 4.16511 8.37836 4.40483 8.13907C4.64244 7.90104 4.78973 7.5727 4.78973 7.21228C4.78973 6.85186 4.64286 6.52141 4.40314 6.2838C4.16511 6.04619 3.83677 5.8989 3.47635 5.8989H3.47593ZM3.73675 6.95146C3.80216 7.01814 3.84394 7.11057 3.84394 7.21228C3.84394 7.31399 3.80301 7.40726 3.73717 7.47352C3.67091 7.53893 3.57848 7.58029 3.47593 7.58029C3.37337 7.58029 3.28179 7.53893 3.20794 7.4655C3.14294 7.39333 3.10791 7.30724 3.10791 7.21228C3.10791 7.11057 3.14927 7.01814 3.21553 6.95188C3.28179 6.88562 3.37422 6.84426 3.47593 6.84426C3.57764 6.84426 3.67133 6.8852 3.73675 6.95146ZM3.47593 17.7168C3.1134 17.7168 2.78506 17.8636 2.54745 18.1033C2.30984 18.3414 2.16255 18.6697 2.16255 19.0301C2.16255 19.3905 2.30942 19.721 2.54745 19.9586C2.78548 20.1966 3.11382 20.3435 3.47593 20.3435C3.83804 20.3435 4.13852 20.208 4.3736 19.9869L4.40441 19.9582C4.64244 19.7202 4.7893 19.3918 4.7893 19.0297C4.7893 18.6676 4.64201 18.3409 4.40272 18.1012C4.16469 17.8636 3.83635 17.7163 3.47593 17.7163V17.7168ZM3.73717 18.7693C3.80258 18.8356 3.84394 18.928 3.84394 19.0306C3.84394 19.1331 3.80258 19.2247 3.72915 19.2985C3.65698 19.3635 3.57089 19.3986 3.47593 19.3986C3.37422 19.3986 3.28179 19.3572 3.21553 19.2909C3.14927 19.2247 3.10791 19.1323 3.10791 19.0306C3.10791 18.9288 3.14885 18.8356 3.21553 18.7702C3.28179 18.7039 3.37422 18.6625 3.47593 18.6625C3.57764 18.6625 3.67091 18.7035 3.73717 18.7693ZM3.47593 11.8078C3.1134 11.8078 2.78506 11.9547 2.54745 12.1944C2.30984 12.4324 2.16255 12.7608 2.16255 13.1212C2.16255 13.4816 2.30942 13.8121 2.54745 14.0497C2.78548 14.2877 3.11382 14.4346 3.47593 14.4346C3.83804 14.4346 4.13852 14.2991 4.3736 14.078L4.40441 14.0493C4.64244 13.8112 4.7893 13.4829 4.7893 13.1208C4.7893 12.7587 4.64201 12.432 4.40272 12.1923C4.16469 11.9547 3.83635 11.8074 3.47593 11.8074V11.8078ZM3.73717 12.8604C3.80258 12.9266 3.84394 13.0191 3.84394 13.1216C3.84394 13.2242 3.80258 13.3158 3.72915 13.3896C3.65698 13.4546 3.57089 13.4896 3.47593 13.4896C3.37422 13.4896 3.28179 13.4483 3.21553 13.382C3.14927 13.3158 3.10791 13.2233 3.10791 13.1216C3.10791 13.0199 3.14885 12.9266 3.21553 12.8612C3.28179 12.795 3.37422 12.7536 3.47593 12.7536C3.57764 12.7536 3.67091 12.7945 3.73717 12.8604ZM6.41752 2.27826H5.50803V3.37428H9.49205V2.27826H8.58298C8.32217 2.27826 8.1103 2.06639 8.1103 1.80558C8.1103 1.63676 8.04193 1.48398 7.93178 1.37383C7.82163 1.26368 7.66886 1.19531 7.50004 1.19531C7.33123 1.19531 7.17887 1.26368 7.06872 1.37383C6.95857 1.48398 6.8902 1.63676 6.8902 1.80558C6.8902 2.06639 6.67834 2.27826 6.41752 2.27826Z" fill="currentColor"/>
  </g>
  <defs>
    <clipPath id="clip0_1887_7084">
      <rect width="15" height="22.4527" fill="white" transform="translate(0 0.25)"/>
    </clipPath>
  </defs>
</svg>
