<svg width="25" height="21" viewBox="0 0 25 21" fill="none" xmlns="http://www.w3.org/2000/svg">
  <g clip-path="url(#clip0_1893_7317)">
    <path d="M23.8017 12.8158C23.5338 12.5495 23.1719 12.4 22.7937 12.4C22.4155 12.4 22.0536 12.5495 21.7857 12.8158L19.2199 15.3742V5.96148C19.2199 5.45095 18.9471 4.9788 18.5052 4.72313C18.0632 4.46745 17.5176 4.46826 17.0757 4.72313C16.6337 4.97799 16.3609 5.45013 16.3609 5.96148V15.375L13.7951 12.8166C13.4276 12.5013 12.9244 12.3943 12.4604 12.5315C11.9956 12.6687 11.6321 13.0322 11.4949 13.497C11.3576 13.9618 11.4646 14.4642 11.78 14.8318L16.7832 19.835C17.0512 20.1013 17.413 20.2508 17.7912 20.2508C18.1694 20.2508 18.5313 20.1013 18.7992 19.835L23.8025 14.8318C24.0688 14.5638 24.2183 14.202 24.2183 13.8238C24.2183 13.4456 24.0688 13.0837 23.8025 12.8158H23.8017Z" fill="currentColor"/>
    <path d="M12.3657 7.68424C12.6319 7.41631 12.7814 7.05444 12.7814 6.67624C12.7814 6.29803 12.6319 5.93616 12.3657 5.66823L7.36238 0.665782C7.09445 0.399485 6.73258 0.25 6.35438 0.25C5.97617 0.25 5.6143 0.399485 5.34637 0.665782L0.34392 5.66905C0.0286124 6.03664 -0.0783962 6.53982 0.0588362 7.0038C0.196069 7.46859 0.559571 7.83209 1.02436 7.96933C1.48916 8.10656 1.99153 7.99955 2.35911 7.68424L4.92487 5.12584V14.5393C4.92487 15.0499 5.1977 15.522 5.63962 15.7777C6.08155 16.0334 6.62721 16.0326 7.06913 15.7777C7.51105 15.5228 7.78388 15.0507 7.78388 14.5393V5.12584L10.3496 7.68424C10.6176 7.95054 10.9794 8.10002 11.3576 8.10002C11.7359 8.10002 12.0977 7.95054 12.3657 7.68424Z" fill="currentColor"/>
  </g>
  <defs>
    <clipPath id="clip0_1893_7317">
      <rect width="24.2174" height="20" fill="white" transform="translate(0 0.25)"/>
    </clipPath>
  </defs>
</svg>
