<svg width="25" height="20" viewBox="0 0 25 20" fill="none" xmlns="http://www.w3.org/2000/svg">
  <g clip-path="url(#clip0_1883_6621)">
    <path d="M21.2408 4.03638C22.5202 3.47631 23.7197 2.74774 24.8062 1.87013C24.9241 1.78052 24.9952 1.64221 24.9996 1.49416C25.0039 1.3461 24.9416 1.20389 24.8296 1.10649C24.176 0.540091 23.3739 0.172394 22.5177 0.047231C21.662 -0.0779321 20.7878 0.044796 19.9994 0.400318L13.9248 3.13978C13.8936 3.15342 13.8586 3.15488 13.8259 3.14417L7.78499 1.11623C6.8733 0.923373 5.92264 1.06802 5.10981 1.52338C5.03919 1.56039 4.99293 1.63198 4.98855 1.71185C4.98416 1.79172 5.02215 1.8677 5.08838 1.9125L9.66877 4.82389C9.71065 4.85165 9.73403 4.89986 9.72916 4.94954C9.72478 4.9997 9.69312 5.04304 9.64734 5.06252L4.52783 7.37147C4.38952 7.43381 4.2288 7.42261 4.10071 7.34176L0.86985 5.31285C0.65605 5.17843 0.378937 5.20181 0.190462 5.37032C0.00149988 5.53834 -0.0530459 5.81107 0.0560457 6.03899L2.00898 10.1207C2.09567 10.3018 2.23009 10.4557 2.39811 10.5653C2.56613 10.6749 2.76093 10.7368 2.96158 10.7436C5.03968 10.8127 7.10609 10.4046 9.00156 9.54941L12.5582 7.94566C12.604 7.92521 12.6576 7.93202 12.6966 7.96271C12.736 7.99339 12.7555 8.04355 12.7472 8.09274L11.3777 15.9464C11.3641 16.0248 11.3923 16.1046 11.4527 16.1563C11.5126 16.2084 11.5959 16.2249 11.6714 16.2006C12.4599 15.9425 13.1349 15.4184 13.5805 14.7186L17.723 5.65327C17.7372 5.62308 17.7615 5.59922 17.7917 5.58558L21.2422 4.03687L21.2408 4.03638Z" fill="currentColor"/>
    <path d="M23.2019 17.1098H1.79757C1.38739 17.1098 1.05487 17.4424 1.05487 17.8525V18.6561C1.05487 19.0663 1.38739 19.3988 1.79757 19.3988H23.2019C23.6121 19.3988 23.9446 19.0663 23.9446 18.6561V17.8525C23.9446 17.4424 23.6121 17.1098 23.2019 17.1098Z" fill="currentColor"/>
  </g>
  <defs>
    <clipPath id="clip0_1883_6621">
      <rect width="25" height="19.3988" fill="white"/>
    </clipPath>
  </defs>
</svg>
