  <svg width="18" height="18" viewBox="0 0 18 18" fill="none" xmlns="http://www.w3.org/2000/svg">
    <path fill-rule="evenodd" clip-rule="evenodd" d="M0 9C0 4.02923 4.02923 0 9 0C13.9708 0 18 4.02923 18 9C18 13.9708 13.9708 18 9 18C4.02923 18 0 13.9708 0 9ZM8.03631 7.66892C9.09415 7.14 10.2858 8.09631 9.99877 9.24369L9.34431 11.8615L9.38308 11.8431C9.54574 11.7716 9.72967 11.7653 9.89679 11.8257C10.0639 11.886 10.2014 12.0083 10.2809 12.1672C10.3604 12.3262 10.3757 12.5096 10.3237 12.6795C10.2717 12.8494 10.1563 12.9928 10.0015 13.08L9.96462 13.1003C8.90585 13.6292 7.71415 12.6729 8.00123 11.5255L8.65662 8.90769L8.61785 8.92615C8.53619 8.97154 8.44619 8.99992 8.35327 9.0096C8.26035 9.01928 8.16644 9.01005 8.07718 8.98248C7.98792 8.9549 7.90517 8.90954 7.8339 8.84914C7.76264 8.78873 7.70433 8.71453 7.66251 8.631C7.62068 8.54747 7.59619 8.45633 7.59051 8.36308C7.58483 8.26983 7.59809 8.1764 7.62948 8.08841C7.66087 8.00042 7.70974 7.91969 7.77315 7.85109C7.83657 7.78249 7.91321 7.72743 7.99846 7.68923L8.03631 7.66892ZM9 6.23077C9.18361 6.23077 9.3597 6.15783 9.48954 6.028C9.61937 5.89816 9.69231 5.72207 9.69231 5.53846C9.69231 5.35485 9.61937 5.17876 9.48954 5.04893C9.3597 4.91909 9.18361 4.84615 9 4.84615C8.81639 4.84615 8.6403 4.91909 8.51046 5.04893C8.38063 5.17876 8.30769 5.35485 8.30769 5.53846C8.30769 5.72207 8.38063 5.89816 8.51046 6.028C8.6403 6.15783 8.81639 6.23077 9 6.23077Z" fill="#0D1B47"/>
  </svg>
