<svg width="20" height="21" viewBox="0 0 20 21" fill="none" xmlns="http://www.w3.org/2000/svg">
  <g clip-path="url(#clip0_1887_7074)">
    <path fill-rule="evenodd" clip-rule="evenodd" d="M9.72944 8.22237V20.062C9.72944 20.1869 9.60635 20.2768 9.48285 20.2426L1.56697 18.0376C1.48421 18.0145 1.42691 17.9407 1.42691 17.857V11.5345C1.42691 11.4265 1.52028 11.3407 1.63148 11.3469L7.77837 11.6888C7.86156 11.6933 7.9388 11.6455 7.96936 11.57L9.3568 8.15309C9.43531 7.9601 9.72986 8.01454 9.72986 8.22196L9.72944 8.22237Z" fill="currentColor"/>
    <path fill-rule="evenodd" clip-rule="evenodd" d="M18.0621 6.92876L10.6865 6.49124C10.5456 6.48299 10.4433 6.61948 10.4947 6.74691L12.2645 11.1498C12.2951 11.2257 12.3727 11.2739 12.4563 11.269L19.8188 10.8323C19.9559 10.824 20.0408 10.6834 19.9809 10.563L18.2247 7.03433C18.1941 6.9733 18.1321 6.93289 18.0625 6.92876H18.0621Z" fill="currentColor"/>
    <path fill-rule="evenodd" clip-rule="evenodd" d="M10.6436 8.15351L12.0311 11.5704C12.0616 11.6459 12.1389 11.6937 12.2221 11.6892L18.3685 11.3473C18.4793 11.3411 18.5731 11.4269 18.5731 11.5349V17.8574C18.5731 17.9411 18.5158 18.0149 18.433 18.038L10.5176 20.243C10.3941 20.2772 10.271 20.1873 10.271 20.0624V8.22237C10.271 8.01495 10.566 7.96052 10.6441 8.15351H10.6436Z" fill="currentColor"/>
    <path fill-rule="evenodd" clip-rule="evenodd" d="M1.77536 7.03474L0.0195309 10.5634C-0.0403125 10.6838 0.0445718 10.8244 0.18166 10.8327L7.54452 11.2694C7.62813 11.2743 7.7058 11.2261 7.73636 11.1502L9.50534 6.74732C9.5567 6.61949 9.45441 6.48299 9.31351 6.49165L1.93749 6.92918C1.86789 6.9333 1.8055 6.97371 1.77536 7.03474Z" fill="currentColor"/>
    <path d="M16.7103 6.06402C16.6747 5.82155 16.4404 5.6232 16.1879 5.6232H14.8849C14.6328 5.6232 14.2512 5.11969 14.1604 4.9399C14.0696 4.7601 14.1409 4.47186 14.3196 4.29825L15.2414 3.4034C15.4201 3.22979 15.4332 2.93495 15.272 2.74608L14.1876 1.6933C13.9936 1.5366 13.6893 1.54979 13.5106 1.72299L12.5892 2.61825C12.4109 2.79103 11.7807 2.70031 11.5842 2.63474C11.3881 2.56918 11.2268 2.31474 11.2268 2.06897V0.803402C11.2268 0.558041 11.0227 0.330412 10.7722 0.29701C10.7731 0.29701 10.4225 0.249587 10.0053 0.25C9.58683 0.25 9.23669 0.297422 9.23669 0.297422C8.9867 0.330412 8.78255 0.558453 8.78255 0.803402V2.06979C8.78255 2.31474 8.26476 2.68546 8.08014 2.77371C7.89509 2.86155 7.59884 2.79144 7.42059 2.61866L6.49917 1.7234C6.32006 1.54979 6.01575 1.53701 5.82179 1.69371L4.73825 2.74691C4.57697 2.93495 4.59055 3.23062 4.7688 3.40423L5.69022 4.29866C5.86975 4.47186 5.77511 5.08464 5.70805 5.27515C5.63972 5.46691 5.37827 5.62237 5.12574 5.62237H3.82277C3.57066 5.62237 3.33681 5.82113 3.30243 6.06402C3.30243 6.06402 3.28757 6.17041 3.27484 6.33041L7.65954 6.07062C7.98082 5.10732 8.90776 4.40959 10.0053 4.40959C11.1029 4.40959 11.9466 5.04546 12.3057 5.94031L16.7273 6.20258C16.7184 6.11804 16.7107 6.06361 16.7107 6.06361L16.7103 6.06402Z" fill="currentColor"/>
  </g>
  <defs>
    <clipPath id="clip0_1887_7074">
      <rect width="20" height="20" fill="white" transform="translate(0 0.25)"/>
    </clipPath>
  </defs>
</svg>
