<svg width="24" height="22" viewBox="0 0 24 22" fill="none" xmlns="http://www.w3.org/2000/svg">
  <path d="M9.20542 16.9312L4.17446 21.3967C3.37538 22.1995 2.07827 22.2015 1.27662 21.4013L1.27098 21.3956C0.468816 20.5882 0.469329 19.2826 1.27201 18.4757L6.31015 14.003C5.44182 12.5993 4.94072 10.9422 4.94072 9.16794C4.94072 4.10468 9.02181 0 14.0553 0C19.0889 0 23.1699 4.10468 23.1699 9.16742C23.1699 14.2302 19.0889 18.3348 14.0553 18.3348C12.273 18.3348 10.6097 17.8203 9.20542 16.9306V16.9312ZM14.0553 16.7394C18.2128 16.7394 21.5831 13.3497 21.5831 9.16794C21.5831 4.98616 18.2128 1.59643 14.0553 1.59643C9.89783 1.59643 6.52761 4.98616 6.52761 9.16794C6.52761 13.3497 9.89783 16.7394 14.0553 16.7394Z" fill="currentColor" />
  <path fill-rule="evenodd" clip-rule="evenodd" d="M10.5144 6.99697C10.5539 5.07312 11.9182 3.72803 14.3262 3.72803C16.5691 3.72803 18.0519 4.97136 18.0519 6.75437C18.0519 7.93499 17.4795 8.75634 16.3737 9.4055C15.3305 10.0074 15.0407 10.3908 15.0407 11.1572V11.5714H12.9624L12.9465 11.1181C12.8445 9.89018 13.2758 9.18654 14.3585 8.55331C15.3705 7.95144 15.6762 7.568 15.6762 6.8253C15.6762 6.08259 15.0802 5.54291 14.1862 5.54291C13.2922 5.54291 12.688 6.11394 12.6414 6.99748H10.5159L10.5144 6.99697ZM14.0282 15.3096C13.3225 15.3096 12.7501 14.77 12.7501 14.0817C12.7501 13.3935 13.3225 12.8543 14.0282 12.8543C14.734 12.8543 15.3146 13.3935 15.3146 14.0817C15.3146 14.77 14.7422 15.3096 14.0282 15.3096Z" fill="currentColor" />
</svg>
