<svg width="16" height="16" viewBox="0 0 16 16" fill="none" xmlns="http://www.w3.org/2000/svg">
  <rect width="16" height="16" rx="8" fill="#9CA3AF"/>
  <g clip-path="url(#clip0_2431_12983)">
    <path d="M10.6935 12.0003C10.5574 12.0003 10.4248 11.9595 10.3149 11.8839L8.00025 10.2967L5.68556 11.8839C5.53834 11.985 5.35207 12.0226 5.17366 11.9871C4.99524 11.9516 4.84126 11.8465 4.75005 11.698C4.65902 11.5495 4.63931 11.3715 4.69605 11.2085L5.58668 8.64858L3.2656 7.06952C3.11801 6.96903 3.02278 6.81452 3.00363 6.64423C2.98429 6.47395 3.04285 6.304 3.16453 6.17659C3.2864 6.04917 3.45989 5.97646 3.64196 5.97629H3.64324L6.50833 5.98143L7.38874 3.41873C7.44475 3.25564 7.5719 3.12257 7.73846 3.05277C7.90503 2.98298 8.0953 2.98298 8.26186 3.05277C8.42842 3.12257 8.55558 3.25564 8.61158 3.41873L9.49163 5.98178L12.3567 5.97663H12.358C12.5401 5.97663 12.7137 6.04952 12.8354 6.17693C12.9573 6.30435 13.0157 6.47429 12.9963 6.64458C12.9772 6.81486 12.8818 6.96937 12.7344 7.06987L10.4133 8.64875L11.3039 11.2087C11.3676 11.3927 11.3338 11.5942 11.2131 11.7508C11.0923 11.9075 10.8991 12.0003 10.6931 12.0006H10.6933L10.6935 12.0003Z" fill="white"/>
  </g>
  <defs>
    <clipPath id="clip0_2431_12983">
      <rect width="10" height="9" fill="white" transform="translate(3 3)"/>
    </clipPath>
  </defs>
</svg>
