<svg width="17" height="15" viewBox="0 0 17 15" fill="none" xmlns="http://www.w3.org/2000/svg">
  <path fill-rule="evenodd" clip-rule="evenodd" d="M12.4456 0.314858C12.0294 -0.104953 11.3521 -0.104953 10.9359 0.314858C10.5197 0.734669 10.5197 1.41789 10.9359 1.8377L13.3758 4.29071H1.06178C0.474234 4.29071 0.000930167 4.76814 0.000930167 5.36082C0.000930167 5.95349 0.474234 6.43092 1.06178 6.43092H15.9382C16.3707 6.43092 16.7543 6.16751 16.9175 5.76417C17.0807 5.36905 16.9991 4.90808 16.6971 4.59528L12.4456 0.314858ZM15.9382 8.57113H1.06178C0.629282 8.57113 0.245743 8.83455 0.0825343 9.23789C-0.080674 9.63301 0.000930164 10.094 0.302865 10.4068L4.55444 14.6872C4.75029 14.893 5.02774 15 5.3052 15C5.58265 15 5.86011 14.8848 6.05596 14.6872C6.25997 14.4896 6.37421 14.2098 6.37421 13.9299C6.37421 13.65 6.25997 13.3701 6.05596 13.1726L3.61599 10.7196H15.9301C16.5176 10.7196 16.9909 10.2421 16.9909 9.64947C16.9909 9.0568 16.5176 8.57937 15.9301 8.57937L15.9382 8.57113Z" fill="currentColor" />
</svg>
