<svg width="26" height="24" viewBox="0 0 26 24" fill="none" xmlns="http://www.w3.org/2000/svg">
  <g clip-path="url(#clip0_2431_12979)">
    <path d="M23.1183 8.92126H18.7776V11.6657H23.1109V21.2556H2.8891V11.6657H7.22243V8.92126H2.88167C1.28948 8.92126 0 10.1462 0 11.6575V21.2638C0 22.7727 1.2901 24 2.88167 24H23.1183C24.7105 24 26 22.7751 26 21.2638V11.6575C26 10.1485 24.7099 8.92126 23.1183 8.92126Z" fill="currentColor"/>
    <path d="M9.9248 6.23625L11.5566 4.68674V9.60517V17.8402C11.5566 18.5964 12.2029 19.2103 13.0008 19.2103C13.7988 19.2103 14.4451 18.597 14.4451 17.8402V12.3496V4.69086L16.0726 6.23625C16.6241 6.7602 17.5416 6.76314 18.1055 6.22743C18.6738 5.6876 18.6738 4.8267 18.1148 4.29628L14.0099 0.396932C13.7357 0.136427 13.371 0.00470438 13.0046 0.00411633L12.9934 0C12.6282 0 12.2642 0.132899 11.9862 0.396932L7.88194 4.29569C7.33037 4.81964 7.32728 5.69113 7.89123 6.22684C8.45952 6.76667 9.3658 6.76667 9.9248 6.23566V6.23625Z" fill="currentColor"/>
  </g>
  <defs>
    <clipPath id="clip0_2431_12979">
      <rect width="26" height="24" fill="white"/>
    </clipPath>
  </defs>
</svg>
