<svg width="52" height="45" viewBox="0 0 52 45" fill="none" xmlns="http://www.w3.org/2000/svg">
<path fill-rule="evenodd" clip-rule="evenodd" d="M6.42857 6.42857C4.72361 6.42857 3.08848 7.10587 1.88288 8.31146C0.677294 9.51705 0 11.1522 0 12.8571V38.5714C0 40.2764 0.677294 41.9115 1.88288 43.1171C3.08848 44.3227 4.72361 45 6.42857 45H45C46.705 45 48.3401 44.3227 49.5457 43.1171C50.7513 41.9115 51.4286 40.2764 51.4286 38.5714V12.8571C51.4286 11.1522 50.7513 9.51705 49.5457 8.31146C48.3401 7.10587 46.705 6.42857 45 6.42857H39.9021C39.0497 6.42839 38.2323 6.08962 37.6296 5.48678L34.0264 1.88357C32.8211 0.677897 31.1863 0.000364098 29.4814 0H21.9471C20.2423 0.000364098 18.6075 0.677897 17.4021 1.88357L13.7989 5.48678C13.1963 6.08962 12.3788 6.42839 11.5264 6.42857H6.42857ZM25.7143 35.3571C26.9806 35.3571 28.2345 35.1077 29.4044 34.6231C30.5744 34.1385 31.6374 33.4282 32.5328 32.5328C33.4282 31.6374 34.1385 30.5744 34.6231 29.4044C35.1077 28.2345 35.3571 26.9806 35.3571 25.7143C35.3571 24.448 35.1077 23.194 34.6231 22.0241C34.1385 20.8542 33.4282 19.7912 32.5328 18.8958C31.6374 18.0003 30.5744 17.29 29.4044 16.8054C28.2345 16.3208 26.9806 16.0714 25.7143 16.0714C23.1568 16.0714 20.7041 17.0874 18.8958 18.8958C17.0874 20.7041 16.0714 23.1568 16.0714 25.7143C16.0714 28.2717 17.0874 30.7244 18.8958 32.5328C20.7041 34.3412 23.1568 35.3571 25.7143 35.3571Z" fill="#C3C5D2"/>
</svg>
