<svg width="32" height="32" viewBox="0 0 32 32" fill="none" xmlns="http://www.w3.org/2000/svg">
<path d="M20.3069 16.4541L31.0704 6.02401C31.3613 5.75191 31.5932 5.42642 31.7528 5.06655C31.9124 4.70667 31.9964 4.31962 31.9999 3.92796C32.0034 3.5363 31.9264 3.14789 31.7733 2.78538C31.6202 2.42287 31.3941 2.09354 31.1082 1.81658C30.8223 1.53963 30.4823 1.3206 30.1081 1.17229C29.7339 1.02398 29.333 0.949345 28.9287 0.952748C28.5244 0.956151 28.1249 1.03752 27.7534 1.19211C27.3819 1.3467 27.0459 1.57142 26.765 1.85314L15.9985 12.2803L5.23496 1.85314C4.95408 1.57142 4.6181 1.3467 4.24662 1.19211C3.87514 1.03752 3.47559 0.956151 3.0713 0.952748C2.66701 0.949345 2.26606 1.02398 1.89186 1.17229C1.51766 1.3206 1.1777 1.53963 0.891814 1.81658C0.605925 2.09354 0.379836 2.42287 0.226739 2.78538C0.0736416 3.14789 -0.00339823 3.5363 0.000114963 3.92796C0.00362815 4.31962 0.087624 4.70667 0.247201 5.06655C0.406778 5.42642 0.638741 5.75191 0.929554 6.02401L11.6931 16.4512L0.929554 26.8813C0.638741 27.1534 0.406778 27.4789 0.247201 27.8387C0.087624 28.1986 0.00362815 28.5857 0.000114963 28.9773C-0.00339823 29.369 0.0736416 29.7574 0.226739 30.1199C0.379836 30.4824 0.605925 30.8117 0.891814 31.0887C1.1777 31.3656 1.51766 31.5847 1.89186 31.733C2.26606 31.8813 2.66701 31.9559 3.0713 31.9525C3.47559 31.9491 3.87514 31.8678 4.24662 31.7132C4.6181 31.5586 4.95408 31.3339 5.23496 31.0521L15.9985 20.625L26.765 31.0521C27.0459 31.3339 27.3819 31.5586 27.7534 31.7132C28.1249 31.8678 28.5244 31.9491 28.9287 31.9525C29.333 31.9559 29.7339 31.8813 30.1081 31.733C30.4823 31.5847 30.8223 31.3656 31.1082 31.0887C31.3941 30.8117 31.6202 30.4824 31.7733 30.1199C31.9264 29.7574 32.0034 29.369 31.9999 28.9773C31.9964 28.5857 31.9124 28.1986 31.7528 27.8387C31.5932 27.4789 31.3613 27.1534 31.0704 26.8813L20.3069 16.4512V16.4541Z" fill="currentColor"/>
</svg>
