<svg width="28" height="28" viewBox="0 0 28 28" fill="none" xmlns="http://www.w3.org/2000/svg">
<path d="M11.4722 26.5H17.0278M23.9722 26.5V4.27778C23.9722 3.54107 23.6796 2.83453 23.1586 2.31359C22.6377 1.79266 21.9312 1.5 21.1944 1.5H7.30556C6.56884 1.5 5.8623 1.79266 5.34137 2.31359C4.82044 2.83453 4.52778 3.54107 4.52778 4.27778V26.5H23.9722ZM23.9722 26.5H26.75H23.9722ZM23.9722 26.5H17.0278H23.9722ZM4.52778 26.5H1.75H4.52778ZM4.52778 26.5H11.4722H4.52778ZM10.0833 7.05556H11.4722H10.0833ZM10.0833 12.6111H11.4722H10.0833ZM17.0278 7.05556H18.4167H17.0278ZM17.0278 12.6111H18.4167H17.0278ZM11.4722 26.5V19.5556C11.4722 19.1872 11.6186 18.8339 11.879 18.5735C12.1395 18.313 12.4928 18.1667 12.8611 18.1667H15.6389C16.0072 18.1667 16.3605 18.313 16.621 18.5735C16.8814 18.8339 17.0278 19.1872 17.0278 19.5556V26.5H11.4722Z" stroke="currentColor" stroke-width="2" stroke-linecap="round" stroke-linejoin="round"/>
</svg>
