<svg width="11" height="12" viewBox="0 0 11 12" fill="none" xmlns="http://www.w3.org/2000/svg">
<path d="M1.05566 3.22222H9.94455M9.389 3.22222L8.90733 9.96778C8.88738 10.2481 8.76194 10.5105 8.55628 10.702C8.35063 10.8935 8.08003 11 7.799 11H3.20122C2.92019 11 2.64959 10.8935 2.44393 10.702C2.23828 10.5105 2.11284 10.2481 2.09289 9.96778L1.61122 3.22222H9.389ZM4.389 5.44444V8.77778V5.44444ZM6.61122 5.44444V8.77778V5.44444ZM7.16678 3.22222V1.55556C7.16678 1.40821 7.10824 1.26691 7.00406 1.16272C6.89987 1.05853 6.75856 1 6.61122 1H4.389C4.24166 1 4.10035 1.05853 3.99616 1.16272C3.89197 1.26691 3.83344 1.40821 3.83344 1.55556V3.22222H7.16678Z" stroke="white" stroke-linecap="round" stroke-linejoin="round"/>
</svg>
