<svg width="11" height="9" viewBox="0 0 11 9" fill="none" xmlns="http://www.w3.org/2000/svg">
<path d="M6.06903 0.893018L10.494 2.66852C10.5863 2.70553 10.6653 2.76918 10.7212 2.85135C10.7771 2.93352 10.8072 3.03047 10.8078 3.12984C10.8083 3.2292 10.7792 3.32648 10.7242 3.40924C10.6693 3.49201 10.5908 3.55651 10.499 3.59452L6.07403 5.42652C5.95157 5.47721 5.81399 5.47721 5.69153 5.42652L1.26603 3.59502C1.17422 3.55701 1.09581 3.49251 1.04082 3.40974C0.98583 3.32698 0.956746 3.2297 0.957283 3.13034C0.957819 3.03097 0.987952 2.93402 1.04383 2.85185C1.09972 2.76968 1.17881 2.70603 1.27103 2.66902L5.69603 0.893018C5.81571 0.844905 5.94935 0.844905 6.06903 0.893018ZM8.94853 5.04802L10.494 5.66852C10.5863 5.70553 10.6653 5.76918 10.7212 5.85135C10.7771 5.93352 10.8072 6.03047 10.8078 6.12984C10.8083 6.22921 10.7792 6.32648 10.7242 6.40924C10.6693 6.49201 10.5908 6.55651 10.499 6.59452L6.07403 8.42652C5.95157 8.47721 5.81399 8.47721 5.69153 8.42652L1.26603 6.59502C1.17422 6.55701 1.09581 6.49251 1.04082 6.40974C0.98583 6.32698 0.956746 6.22971 0.957283 6.13034C0.957819 6.03097 0.987952 5.93402 1.04383 5.85185C1.09972 5.76968 1.17881 5.70603 1.27103 5.66902L2.81653 5.04902L5.40453 6.12002C5.71061 6.24669 6.05445 6.24669 6.36053 6.12002L8.94853 5.04902V5.04802Z" fill="#3F9CF4"/>
</svg>
