<svg width="28" height="28" viewBox="0 0 28 28" fill="none" xmlns="http://www.w3.org/2000/svg">
<path d="M4.69583 22.0611C7.6103 20.4138 10.9022 19.5505 14.25 19.5556C17.7222 19.5556 20.9819 20.4653 23.8042 22.0611H4.69583ZM18.4167 11.2222C18.4167 12.3273 17.9777 13.3871 17.1963 14.1685C16.4149 14.9499 15.3551 15.3889 14.25 15.3889C13.1449 15.3889 12.0851 14.9499 11.3037 14.1685C10.5223 13.3871 10.0833 12.3273 10.0833 11.2222C10.0833 10.1172 10.5223 9.05734 11.3037 8.27594C12.0851 7.49454 13.1449 7.05556 14.25 7.05556C15.3551 7.05556 16.4149 7.49454 17.1963 8.27594C17.9777 9.05734 18.4167 10.1172 18.4167 11.2222V11.2222ZM26.75 14C26.75 15.6415 26.4267 17.267 25.7985 18.7835C25.1703 20.3001 24.2496 21.6781 23.0888 22.8388C21.9281 23.9996 20.5501 24.9203 19.0335 25.5485C17.517 26.1767 15.8915 26.5 14.25 26.5C12.6085 26.5 10.983 26.1767 9.46646 25.5485C7.94989 24.9203 6.5719 23.9996 5.41116 22.8388C4.25043 21.6781 3.32969 20.3001 2.70151 18.7835C2.07332 17.267 1.75 15.6415 1.75 14C1.75 10.6848 3.06696 7.50537 5.41116 5.16117C7.75537 2.81696 10.9348 1.5 14.25 1.5C17.5652 1.5 20.7446 2.81696 23.0888 5.16117C25.433 7.50537 26.75 10.6848 26.75 14Z" stroke="currentColor" stroke-width="2" stroke-linecap="round" stroke-linejoin="round"/>
</svg>
