<svg width="16" height="16" viewBox="0 0 16 16" fill="none" xmlns="http://www.w3.org/2000/svg">
<circle cx="8" cy="8" r="8" fill="#0D1B47"/>
<path d="M6.90909 9.88352V9.73864C6.91193 9.24148 6.95597 8.84517 7.04119 8.54972C7.12926 8.25426 7.2571 8.01562 7.42472 7.83381C7.59233 7.65199 7.79403 7.48722 8.02983 7.33949C8.20597 7.22585 8.36364 7.10795 8.50284 6.9858C8.64205 6.86364 8.75284 6.72869 8.83523 6.58097C8.91761 6.4304 8.95881 6.26278 8.95881 6.07812C8.95881 5.8821 8.91193 5.71023 8.81818 5.5625C8.72443 5.41477 8.59801 5.30114 8.43892 5.22159C8.28267 5.14205 8.10938 5.10227 7.91903 5.10227C7.73438 5.10227 7.55966 5.14347 7.39489 5.22585C7.23011 5.3054 7.09517 5.42472 6.99006 5.58381C6.88494 5.74006 6.82813 5.93466 6.8196 6.16761H5.08097C5.09517 5.59943 5.23153 5.13068 5.49006 4.76136C5.74858 4.3892 6.09091 4.11222 6.51705 3.9304C6.94318 3.74574 7.41335 3.65341 7.92756 3.65341C8.4929 3.65341 8.9929 3.74716 9.42756 3.93466C9.86222 4.11932 10.2031 4.38778 10.4503 4.74006C10.6974 5.09233 10.821 5.51705 10.821 6.0142C10.821 6.34659 10.7656 6.64205 10.6548 6.90057C10.5469 7.15625 10.3949 7.38352 10.1989 7.58239C10.0028 7.77841 9.77131 7.95597 9.50426 8.11506C9.27983 8.24858 9.09517 8.38778 8.95028 8.53267C8.80824 8.67756 8.7017 8.84517 8.63068 9.03551C8.5625 9.22585 8.52699 9.46023 8.52415 9.73864V9.88352H6.90909ZM7.75284 12.6108C7.46875 12.6108 7.22585 12.5114 7.02415 12.3125C6.82528 12.1108 6.72727 11.8693 6.73011 11.5881C6.72727 11.3097 6.82528 11.071 7.02415 10.8722C7.22585 10.6733 7.46875 10.5739 7.75284 10.5739C8.02273 10.5739 8.25994 10.6733 8.46449 10.8722C8.66903 11.071 8.77273 11.3097 8.77557 11.5881C8.77273 11.7756 8.72301 11.9474 8.62642 12.1037C8.53267 12.2571 8.40909 12.3807 8.25568 12.4744C8.10227 12.5653 7.93466 12.6108 7.75284 12.6108Z" fill="white"/>
</svg>
