<svg width="20" height="21" viewBox="0 0 20 21" fill="none" xmlns="http://www.w3.org/2000/svg">
<path d="M10 20.5C4.477 20.5 0 16.023 0 10.5C0 4.977 4.477 0.5 10 0.5C15.523 0.5 20 4.977 20 10.5C20 16.023 15.523 20.5 10 20.5ZM10 18.5C12.1217 18.5 14.1566 17.6571 15.6569 16.1569C17.1571 14.6566 18 12.6217 18 10.5C18 8.37827 17.1571 6.34344 15.6569 4.84315C14.1566 3.34285 12.1217 2.5 10 2.5C7.87827 2.5 5.84344 3.34285 4.34315 4.84315C2.84285 6.34344 2 8.37827 2 10.5C2 12.6217 2.84285 14.6566 4.34315 16.1569C5.84344 17.6571 7.87827 18.5 10 18.5ZM14.126 12.246L10.071 15.144C9.166 15.79 7.941 15.533 7.334 14.568C7.11494 14.2171 6.99918 13.8116 7 13.398V7.602C7 6.442 7.883 5.5 8.972 5.5C9.363 5.5 9.746 5.624 10.071 5.856L14.126 8.754C15.031 9.401 15.272 10.706 14.666 11.671C14.5251 11.8959 14.3417 12.0913 14.126 12.246ZM8.972 7.602V13.398L13.027 10.5L8.972 7.602Z" fill="#3F9CF4"/>
</svg>
