<svg width="20" height="20" viewBox="0 0 20 20" fill="none" xmlns="http://www.w3.org/2000/svg">
  <g clip-path="url(#clip0_1894_7341)">
    <path d="M0.876673 4.45968L9.50334 0.117923C9.8162 -0.0397758 10.1843 -0.0397758 10.4971 0.117923L19.1238 4.45968C20.1724 4.98743 19.7995 6.57832 18.6267 6.57832H1.37334C0.200959 6.57832 -0.172375 4.98743 0.876673 4.45968Z" fill="currentColor"/>
    <path d="M3.33334 17.7606V9.93361C3.33334 9.31576 3.83096 8.81534 4.44429 8.81534C5.0581 8.81534 5.55525 9.31624 5.55525 9.93361V17.7601C5.55525 17.7601 5.55667 17.763 5.5581 17.763H8.8862C8.8862 17.763 8.88906 17.7615 8.88906 17.7601V9.93361C8.88906 9.31576 9.38667 8.81534 10 8.81534C10.6138 8.81534 11.111 9.31624 11.111 9.93361V17.7601C11.111 17.7601 11.1124 17.763 11.1138 17.763H14.4419C14.4419 17.763 14.4448 17.7615 14.4448 17.7601V9.93361C14.4448 9.31576 14.9424 8.81534 15.5557 8.81534C16.1695 8.81534 16.6667 9.31624 16.6667 9.93361V17.7601C16.6667 17.7601 16.6681 17.763 16.6695 17.763H18.86C19.4638 17.763 19.9795 18.2356 19.9995 18.8434C20.0205 19.4785 19.5152 20 18.8891 20H1.14001C0.536198 20 0.0204835 19.5274 0.000483478 18.9196C-0.0195165 18.3118 0.484769 17.763 1.11096 17.763H3.33096C3.33096 17.763 3.33382 17.762 3.33382 17.7601L3.33334 17.7606Z" fill="currentColor"/>
  </g>
  <defs>
    <clipPath id="clip0_1894_7341">
      <rect width="20" height="20" fill="white"/>
    </clipPath>
  </defs>
</svg>
