<svg width="20" height="20" viewBox="0 0 20 20" fill="none" xmlns="http://www.w3.org/2000/svg">
  <g clip-path="url(#clip0_1883_6551)">
    <path d="M20 14.8947V17.8947C19.9981 18.4525 19.7758 18.9873 19.3816 19.3816C18.9873 19.7758 18.4525 19.9981 17.8947 20H11.7368C11.179 19.9981 10.6443 19.7758 10.25 19.3816C9.85573 18.9873 9.63346 18.4525 9.63158 17.8947V14.8947C9.63346 14.3369 9.85573 13.8022 10.25 13.4079C10.6443 13.0136 11.179 12.7914 11.7368 12.7895H17.8947C18.4525 12.7914 18.9873 13.0136 19.3816 13.4079C19.7758 13.8022 19.9981 14.3369 20 14.8947ZM17.8947 0H11.7368C11.179 0.0018797 10.6443 0.224154 10.25 0.618421C9.85573 1.01269 9.63346 1.54746 9.63158 2.10526V9.31579C9.63346 9.87359 9.85573 10.4079 10.25 10.8026C10.6443 11.1969 11.179 11.4192 11.7368 11.4211H17.8947C18.4525 11.4192 18.9873 11.1969 19.3816 10.8026C19.7758 10.4084 19.9981 9.87359 20 9.31579V2.10526C19.9981 1.54746 19.7758 1.01269 19.3816 0.618421C18.9873 0.224154 18.4525 0.00140977 17.8947 0ZM6.15789 0H2.10526C1.54746 0.0018797 1.01269 0.224154 0.618421 0.618421C0.224154 1.01269 0.0018797 1.54746 0 2.10526V5.10526C0.0018797 5.66306 0.224154 6.19784 0.618421 6.5921C1.01269 6.98637 1.54746 7.20865 2.10526 7.21053H6.15789C6.71569 7.20865 7.25047 6.98637 7.64474 6.5921C8.039 6.19784 8.26128 5.66306 8.26316 5.10526V2.10526C8.26128 1.54746 8.039 1.01269 7.64474 0.618421C7.25047 0.224154 6.71569 0.0018797 6.15789 0ZM6.15789 8.57895H2.10526C1.54746 8.58083 1.01269 8.8031 0.618421 9.19737C0.224154 9.5921 0.0018797 10.1264 0 10.6842V17.8947C0.0018797 18.4525 0.224154 18.9873 0.618421 19.3816C1.01269 19.7758 1.54746 19.9981 2.10526 20H6.15789C6.71569 19.9981 7.25047 19.7758 7.64474 19.3816C8.039 18.9873 8.26128 18.4525 8.26316 17.8947V10.6842C8.26128 10.1264 8.039 9.5921 7.64474 9.19737C7.25047 8.8031 6.71569 8.58083 6.15789 8.57895Z" fill="currentColor"/>
  </g>
  <defs>
    <clipPath id="clip0_1883_6551">
      <rect width="20" height="20" fill="white"/>
    </clipPath>
  </defs>
</svg>
