<svg width="25" height="24" viewBox="0 0 25 24" fill="none" xmlns="http://www.w3.org/2000/svg">
  <path d="M12.1699 15C12.9656 15 13.7286 14.6839 14.2912 14.1213C14.8539 13.5587 15.1699 12.7956 15.1699 12C15.1699 11.2044 14.8539 10.4413 14.2912 9.87868C13.7286 9.31607 12.9656 9 12.1699 9C11.3743 9 10.6112 9.31607 10.0486 9.87868C9.48599 10.4413 9.16992 11.2044 9.16992 12C9.16992 12.7956 9.48599 13.5587 10.0486 14.1213C10.6112 14.6839 11.3743 15 12.1699 15Z" fill="currentColor" />
  <path fill-rule="evenodd" clip-rule="evenodd" d="M2.25276 11.4638C3.63488 7.12824 7.55181 4 12.1709 4C16.7873 4 20.7024 7.12533 22.0863 11.457C22.1978 11.808 22.1978 12.1862 22.0863 12.5362C20.7051 16.8718 16.7873 20 12.1691 20C7.55274 20 3.63674 16.8747 2.25369 12.543C2.142 12.1927 2.142 11.8141 2.25369 11.4638H2.25276ZM17.0464 12C17.0464 13.3502 16.5327 14.6451 15.6182 15.5998C14.7037 16.5545 13.4633 17.0909 12.17 17.0909C10.8767 17.0909 9.63637 16.5545 8.72186 15.5998C7.80735 14.6451 7.29359 13.3502 7.29359 12C7.29359 10.6498 7.80735 9.35491 8.72186 8.40018C9.63637 7.44545 10.8767 6.90909 12.17 6.90909C13.4633 6.90909 14.7037 7.44545 15.6182 8.40018C16.5327 9.35491 17.0464 10.6498 17.0464 12Z" fill="currentColor" />
</svg>
