<svg width="22" height="21" viewBox="0 0 22 21" fill="none" xmlns="http://www.w3.org/2000/svg">
  <path d="M11.7623 0.5C6.23507 0.5 1.75023 4.98485 1.75023 10.5121C1.75023 12.3325 2.2446 14.0403 3.10304 15.5277C3.16408 15.6333 3.15412 15.7654 3.0788 15.861L0.0653766 19.7108C-0.118173 19.9455 0.11516 20.2749 0.397411 20.1797L5.4788 18.4658C5.57274 18.4342 5.6762 18.4515 5.75542 18.5113C7.43031 19.7623 9.49222 20.5 11.7381 20.5C17.2654 20.5 21.7502 16.0152 21.7502 10.4879C21.7745 4.98485 17.2896 0.5 11.7623 0.5ZM11.5022 17.4866C10.6459 17.4866 9.94546 16.7861 9.94546 15.9299C9.94546 15.0736 10.6459 14.3732 11.5022 14.3732C12.3585 14.3732 13.0589 15.0736 13.0589 15.9299C13.0589 16.7861 12.3585 17.4866 11.5022 17.4866ZM12.9814 11.5701C12.5143 12.2316 12.6701 13.1662 11.4247 13.1662C10.6074 13.1662 10.2182 12.5048 10.2182 11.9203C10.2182 9.66277 13.5268 9.15671 13.5268 7.32771C13.5268 6.31558 12.8654 5.69307 11.6974 5.69307C9.28442 5.69307 10.2182 8.18398 8.38875 8.18398C7.72728 8.18398 7.14287 7.79481 7.14287 7.01602C7.14287 5.14762 9.2446 3.51299 11.5801 3.51299C13.9156 3.51299 16.3675 4.64156 16.3675 7.28875C16.3675 9.74069 13.5649 10.7139 12.9814 11.5701Z" fill="currentColor" />
</svg>
