<svg width="20" height="21" viewBox="0 0 20 21" fill="none" xmlns="http://www.w3.org/2000/svg">
  <g clip-path="url(#clip0_1883_6797)">
    <path d="M2.65713 17.5716C3.45927 16.8322 4.34945 16.2256 5.30845 15.7639C5.34107 15.7482 5.35806 15.7128 5.34957 15.6773C5.03362 14.3398 4.8437 12.8417 4.81063 11.2435C4.80974 11.2018 4.77578 11.1682 4.73422 11.1682H0.0813275C0.0375335 11.1682 0.00223016 11.205 0.00446454 11.2489C0.122887 13.6834 1.11093 15.8936 2.65758 17.5712L2.65713 17.5716Z" fill="currentColor"/>
    <path d="M0 10.3314H4.73422C4.77578 10.3314 4.80974 10.2977 4.81064 10.256C4.8437 8.65829 5.03363 7.16018 5.34957 5.82717C5.35806 5.79218 5.34063 5.75628 5.30846 5.74058C4.3718 5.28966 3.50084 4.69697 2.71344 3.98044C2.68216 3.95172 2.63345 3.95397 2.6053 3.98538C1.07072 5.67821 0.0987599 7.89196 0 10.3318V10.3314Z" fill="currentColor"/>
    <path d="M3.24924 18.1621C4.4214 19.2393 5.84515 20.0375 7.42084 20.4597C7.49413 20.4795 7.54909 20.3915 7.4986 20.3345C6.72728 19.4628 6.07574 18.1944 5.61098 16.6505C5.59713 16.6047 5.54574 16.5818 5.50329 16.6034C4.69131 17.0121 3.93519 17.5344 3.24924 18.1625V18.1621Z" fill="currentColor"/>
    <path d="M5.58506 4.94194C6.05116 3.35454 6.71254 2.05429 7.49859 1.16592C7.54909 1.10894 7.49412 1.021 7.42084 1.04074C5.8733 1.45531 4.47234 2.23241 3.31225 3.28051C3.27828 3.31102 3.27828 3.36531 3.31225 3.39582C4.00491 4.01902 4.76683 4.53589 5.58462 4.94194H5.58506Z" fill="currentColor"/>
    <path d="M9.51133 6.79361C8.37805 6.74201 7.27605 6.51947 6.23393 6.13227C6.19058 6.11612 6.14277 6.14124 6.13249 6.18656C5.84917 7.424 5.67801 8.80232 5.64494 10.252C5.64405 10.295 5.67891 10.3309 5.72181 10.3309H9.50775C9.55021 10.3309 9.58462 10.2964 9.58462 10.2538V6.86989C9.58462 6.82861 9.55244 6.79496 9.51178 6.79316L9.51133 6.79361Z" fill="currentColor"/>
    <path d="M10.4189 0.75V5.87832C10.4189 5.92229 10.4556 5.95773 10.4994 5.95549C11.5603 5.903 12.5943 5.68315 13.5681 5.31075C13.6056 5.29639 13.6257 5.25467 13.6146 5.21608C12.8996 2.77396 11.7332 1.05285 10.4189 0.75Z" fill="currentColor"/>
    <path d="M6.15216 15.4023C7.21841 14.9962 8.34856 14.7589 9.51134 14.7059C9.55245 14.7041 9.58463 14.6705 9.58463 14.6292V11.2453C9.58463 11.2027 9.55066 11.1682 9.50821 11.1682H5.72227C5.67937 11.1682 5.64451 11.2041 5.6454 11.2471C5.67937 12.73 5.85722 14.1384 6.15261 15.4018L6.15216 15.4023Z" fill="currentColor"/>
    <path d="M10.5173 20.7249C11.7913 20.3615 12.9179 18.6695 13.615 16.2839C13.6262 16.2453 13.6061 16.2036 13.5685 16.1892C12.5948 15.8164 11.5612 15.597 10.4998 15.5445C10.456 15.5423 10.4194 15.5777 10.4194 15.6217V20.6504C10.4194 20.7015 10.4681 20.7388 10.5173 20.7249Z" fill="currentColor"/>
    <path d="M9.58462 20.75V15.6217C9.58462 15.5777 9.54797 15.5423 9.50418 15.5445C8.43927 15.597 7.40519 15.8169 6.43145 16.1892C6.39391 16.2036 6.3738 16.2453 6.38497 16.2839C7.09998 18.7305 8.26677 20.4471 9.58506 20.7504L9.58462 20.75Z" fill="currentColor"/>
    <path d="M10.4922 14.7064C11.6255 14.758 12.7275 14.9846 13.7656 15.3677C13.809 15.3839 13.8568 15.3583 13.8671 15.3134C14.1504 14.076 14.3215 12.6977 14.3546 11.248C14.3555 11.205 14.3206 11.1691 14.2777 11.1691H10.4958C10.4534 11.1691 10.4189 11.2036 10.4189 11.2462V14.6301C10.4189 14.6714 10.4511 14.705 10.4918 14.7068L10.4922 14.7064Z" fill="currentColor"/>
    <path d="M6.36487 5.28509C7.35828 5.67319 8.4147 5.90201 9.50418 5.95585C9.54798 5.9581 9.58462 5.92265 9.58462 5.87868V0.84907C9.58462 0.797921 9.53591 0.760681 9.48675 0.77459C8.19662 1.1416 7.06066 2.8663 6.36487 5.28464V5.28509Z" fill="currentColor"/>
    <path d="M10.4958 10.3314H14.2777C14.3206 10.3314 14.3555 10.2955 14.3546 10.2524C14.3215 8.80321 14.1504 7.42444 13.8671 6.18745C13.8568 6.14214 13.809 6.11701 13.7656 6.13317C12.7275 6.51992 11.6251 6.74291 10.4922 6.79451C10.4511 6.7963 10.4189 6.82995 10.4189 6.87123V10.2551C10.4189 10.2977 10.4534 10.3323 10.4958 10.3323V10.3314Z" fill="currentColor"/>
    <path d="M12.5801 20.4593C14.1276 20.0447 15.5317 19.2676 16.6882 18.2195C16.7222 18.189 16.7217 18.1351 16.6882 18.1046C16.0224 17.5021 15.2841 16.9996 14.5012 16.6034C14.4587 16.5818 14.4073 16.6047 14.3935 16.6505C13.9252 18.1939 13.2772 19.4623 12.5027 20.3341C12.4523 20.3911 12.5068 20.479 12.5805 20.4597L12.5801 20.4593Z" fill="currentColor"/>
    <path d="M14.5007 4.90066C15.2837 4.5009 16.0219 3.99794 16.6873 3.39582C16.7213 3.36531 16.7213 3.31147 16.6873 3.28051C15.5312 2.23645 14.1271 1.45576 12.5796 1.04074C12.5063 1.021 12.4514 1.10938 12.5019 1.16637C13.2758 2.03814 13.9243 3.30653 14.3921 4.854C14.406 4.89977 14.4578 4.92265 14.5003 4.90111L14.5007 4.90066Z" fill="currentColor"/>
    <path d="M19.9995 11.1686H15.2658C15.2242 11.1686 15.1903 11.2023 15.1894 11.244C15.1563 12.8417 14.9664 14.3398 14.6504 15.6728C14.6419 15.7078 14.6594 15.7437 14.6915 15.7594C15.6282 16.2103 16.5027 16.803 17.2866 17.5191C17.3178 17.5478 17.3665 17.546 17.3947 17.5146C18.9288 15.8254 19.9008 13.6076 19.9995 11.1682V11.1686Z" fill="currentColor"/>
    <path d="M17.3424 3.92839C16.5448 4.6678 15.6501 5.27845 14.6911 5.74013C14.6585 5.75583 14.6415 5.79128 14.65 5.82672C14.9659 7.16018 15.1559 8.65829 15.1889 10.2556C15.1898 10.2973 15.2238 10.3309 15.2653 10.3309H19.9187C19.9625 10.3309 19.9978 10.2942 19.9955 10.2502C19.8771 7.81569 18.8891 5.60957 17.3424 3.92794V3.92839Z" fill="currentColor"/>
  </g>
  <defs>
    <clipPath id="clip0_1883_6797">
      <rect width="20" height="20" fill="white" transform="translate(0 0.75)"/>
    </clipPath>
  </defs>
</svg>
