<svg width="16" height="24" viewBox="0 0 16 24" fill="none" xmlns="http://www.w3.org/2000/svg">
  <path d="M1.14524 17.4449L3.67267 16.4971L4.02809 18.7086C4.10707 19.3009 4.62046 19.6958 5.21282 19.6958H10.0307C10.6231 19.6958 11.097 19.2614 11.2155 18.7086L11.5709 16.4971L14.0983 17.4449C14.6512 17.6423 15.2041 17.2474 15.2041 16.655V14.5225C15.2041 12.9429 14.2168 11.9556 13.4665 11.4422C12.9531 11.0868 12.6371 10.5339 12.5977 9.90206C12.0843 4.57076 9.12244 1.7669 8.01669 0.898092C7.77974 0.700636 7.42432 0.700636 7.18738 0.898092C6.04214 1.7669 3.1198 4.57076 2.60641 9.90206C2.56692 10.4944 2.25099 11.0868 1.73761 11.4027C0.987277 11.9161 0 12.9034 0 14.5225V16.655C0.0394911 17.2474 0.592366 17.6423 1.14524 17.4449ZM7.62178 7.13768C8.68804 7.13768 9.59633 8.00649 9.59633 9.11224C9.59633 10.218 8.72753 11.0868 7.62178 11.0868C6.51603 11.0868 5.64723 10.218 5.64723 9.11224C5.64723 8.00649 6.51603 7.13768 7.62178 7.13768Z" fill="currentColor" />
  <path d="M4.26501 21.4544V23.0698C4.26501 23.4544 4.58094 23.7621 4.97585 23.7621C5.17331 23.7621 5.37076 23.6852 5.48924 23.5698C5.60771 23.4544 5.68669 23.2621 5.68669 23.0698V21.4544C5.68669 21.0698 5.37076 20.7621 4.97585 20.7621C4.58094 20.7621 4.26501 21.0698 4.26501 21.4544Z" fill="currentColor"/>
  <path d="M7.62179 20.7621C7.22688 20.7621 6.91095 20.9997 6.91095 21.2968V23.2275C6.91095 23.5245 7.22688 23.7621 7.62179 23.7621C7.81924 23.7621 8.0167 23.7027 8.13517 23.6136C8.25365 23.5245 8.33263 23.376 8.33263 23.2275V21.2973C8.33263 21.0003 8.0167 20.7626 7.62179 20.7626V20.7621Z" fill="currentColor"/>
  <path d="M10.2282 20.7621C9.83326 20.7621 9.51733 21.0698 9.51733 21.4544V23.0698C9.51733 23.4544 9.83326 23.7621 10.2282 23.7621C10.4256 23.7621 10.6231 23.6852 10.7416 23.5698C10.86 23.4544 10.939 23.2621 10.939 23.0698V21.4544C10.9785 21.0698 10.6626 20.7621 10.2282 20.7621Z" fill="currentColor"/>
</svg>
