<svg viewBox="0 0 90 60" fill="none" xmlns="http://www.w3.org/2000/svg">
  <path d="M87.4076 0.0143371H87.3321C87.2208 -0.00375033 87.1096 -0.00375033 86.9983 0.0143371C86.9427 0.0143371 86.887 -0.00375033 86.8314 0.0143371L43.5692 7.98687C43.4202 8.00496 43.291 8.07932 43.1619 8.1376L2.01358 15.7323C1.29039 15.8629 0.698333 16.4257 0.547338 17.1572C0.380448 17.8887 0.658597 18.6564 1.25265 19.0885L16.9403 30.6806L26.5464 58.6859V58.704L26.5643 58.7422C26.5822 58.7804 26.602 58.8186 26.6199 58.8547C26.6755 58.9854 26.7312 59.0979 26.8245 59.2305C26.8623 59.2868 26.9159 59.323 26.9736 59.3813C27.0491 59.4737 27.1226 59.5501 27.1961 59.6064C27.2696 59.6626 27.3451 59.6988 27.4186 59.737C27.4742 59.7752 27.5299 59.8294 27.6034 59.8495C27.6212 59.8676 27.6411 59.8676 27.659 59.8676C27.8636 59.944 28.0862 59.9983 28.3087 59.9983H28.3266C28.4179 59.9983 28.5312 59.9983 28.6425 59.9802C28.6981 59.9621 28.7537 59.9239 28.8272 59.9038C28.9186 59.8857 29.012 59.8475 29.1233 59.7913C29.2345 59.735 29.3279 59.6606 29.4392 59.5843C29.4948 59.5461 29.5504 59.528 29.5882 59.4918L41.4373 48.161L50.9322 54.8192C51.2481 55.0443 51.6176 55.1569 51.9892 55.1569C52.1004 55.1569 52.2117 55.1569 52.3229 55.1388C52.8057 55.0463 53.2309 54.763 53.5091 54.351L60.5005 44.1276C60.8721 44.015 61.2059 43.808 61.4463 43.4704L89.1679 2.92038C89.6308 2.24512 89.6129 1.32668 89.0924 0.689601C88.6851 0.165066 88.0354 -0.0600223 87.4036 0.0143371H87.4076ZM27.0113 34.7904C26.9 34.8668 26.8067 34.9412 26.7153 35.0155C26.6974 35.0336 26.6596 35.0537 26.6398 35.0718L26.6219 35.0899C26.5841 35.1281 26.5663 35.1662 26.5305 35.2024C26.4749 35.2949 26.4014 35.3712 26.3457 35.4657L26.3279 35.4838C26.31 35.54 26.2901 35.5963 26.2524 35.6345C26.2146 35.7269 26.1769 35.8214 26.161 35.9159C26.1431 35.9159 26.1431 35.9339 26.1431 35.954C26.1252 36.0103 26.1252 36.0666 26.1252 36.1229C26.1073 36.1992 26.0875 36.2736 26.0875 36.3479V36.4605L26.2543 46.3845L21.0629 31.2473L61.7463 14.5164L27.0153 34.7924L27.0113 34.7904Z" fill="currentColor" />
</svg>
