<svg width="20" height="20" viewBox="0 0 20 20" fill="none" xmlns="http://www.w3.org/2000/svg">
  <g clip-path="url(#clip0_1892_7306)">
    <path fill-rule="evenodd" clip-rule="evenodd" d="M13.4391 5.19803C12.9327 4.21364 13.0878 2.97546 13.9086 2.14629C14.9291 1.11551 16.5921 1.10749 17.6224 2.12845C18.6527 3.14941 18.6607 4.81311 17.6402 5.84388C16.8194 6.67305 15.5836 6.84031 14.5947 6.34344L6.38921 14.6325C6.89568 15.6169 6.74053 16.8546 5.9193 17.6838C4.8988 18.7145 3.23584 18.723 2.20553 17.702C1.17521 16.6811 1.16719 15.0174 2.1877 13.9866C3.00847 13.1574 4.24476 12.9906 5.23317 13.4875L13.4391 5.19803ZM4.49175 11.0647C5.31253 10.2355 5.46768 8.99732 4.96077 8.01337L7.96835 4.97502C8.95675 5.47234 10.193 5.30508 11.0138 4.47591C12.0343 3.44513 12.0263 1.78099 10.996 0.760475C9.96567 -0.260489 8.30272 -0.252014 7.28221 0.778762C6.46144 1.60793 6.30629 2.84611 6.81275 3.83006L3.80517 6.86841C2.81676 6.37109 1.58092 6.53835 0.760143 7.36752C-0.260366 8.3983 -0.252341 10.062 0.777976 11.083C1.80829 12.1039 3.47169 12.0959 4.49175 11.0651V11.0647ZM1.91529 8.51204C2.30361 8.11953 2.93669 8.11641 3.32902 8.50535C3.72136 8.89428 3.72448 9.5272 3.33571 9.91971C2.94739 10.3122 2.31431 10.3153 1.92198 9.9264C1.52965 9.53746 1.52653 8.90454 1.91529 8.51204ZM8.43781 1.92328C8.04949 2.31578 8.05261 2.94915 8.44449 3.33764C8.83638 3.72613 9.46991 3.72301 9.85822 3.33095C10.2465 2.93889 10.2434 2.30508 9.85154 1.91659C9.45965 1.52809 8.82613 1.53122 8.43781 1.92328ZM12.7178 19.2212C13.5386 18.3921 13.6937 17.1539 13.1872 16.1699L16.1948 13.1316C17.1832 13.6289 18.4191 13.4616 19.2399 12.6325C20.2604 11.6017 20.2523 9.93799 19.222 8.91703C18.1917 7.89607 16.5283 7.9041 15.5082 8.93487C14.6875 9.76404 14.5323 11.0022 15.0392 11.9862L12.0317 15.0245C11.0432 14.5272 9.80695 14.6945 8.98618 15.5236C7.96567 16.5544 7.9737 18.2185 9.00401 19.2391C10.0343 20.26 11.6973 20.2516 12.7178 19.2208V19.2212ZM10.1418 16.669C10.5301 16.2765 11.1632 16.2734 11.5555 16.6623C11.9478 17.0513 11.951 17.6842 11.5622 18.0767C11.1739 18.4692 10.5408 18.4723 10.1485 18.0834C9.75613 17.6949 9.75301 17.0615 10.1418 16.669ZM3.34329 15.1311C3.73206 14.7386 4.36469 14.7355 4.75702 15.1244C5.14935 15.5129 5.15203 16.1463 4.76371 16.5384C4.37539 16.9309 3.74231 16.934 3.35042 16.5455C2.95809 16.1565 2.95497 15.5236 3.34374 15.1311H3.34329ZM16.6638 10.0807C16.2755 10.4732 16.2786 11.1066 16.6705 11.4951C17.0629 11.8836 17.6959 11.8805 18.0843 11.4884C18.4726 11.0959 18.4695 10.4625 18.0776 10.074C17.6857 9.68554 17.0522 9.68866 16.6638 10.0807ZM15.0642 3.29125C14.6754 3.68376 14.6786 4.31667 15.0709 4.70561C15.4632 5.09455 16.0959 5.09098 16.4842 4.69848C16.8725 4.30597 16.8698 3.67305 16.4775 3.28456C16.0852 2.89562 15.4521 2.89919 15.0638 3.29125H15.0642Z" fill="currentColor"/>
  </g>
  <defs>
    <clipPath id="clip0_1892_7306">
      <rect width="20" height="20" fill="white"/>
    </clipPath>
  </defs>
</svg>
