<svg width="23" height="19" viewBox="0 0 23 19" fill="none" xmlns="http://www.w3.org/2000/svg">
  <path d="M20.7076 1.59181C20.5979 1.34119 20.4187 1.12796 20.1917 0.978897C19.9651 0.829331 19.7002 0.75 19.4292 0.75H3.57096C3.3 0.75 3.03503 0.829331 2.80799 0.978897C2.58094 1.12846 2.4018 1.34119 2.29202 1.59181L0.11987 6.54367C-0.0717464 6.98125 -0.0318264 7.48755 0.226656 7.88875C0.484639 8.28995 0.925756 8.53148 1.39831 8.53148H2.31348L1.02106 17.6287C0.967173 18.0193 1.23613 18.3806 1.62186 18.4352C2.00759 18.4898 2.36437 18.2174 2.41827 17.8268L3.22864 12.0685H17.0889C17.4746 12.0685 17.7875 11.7517 17.7875 11.3611C17.7875 10.9705 17.4746 10.6537 17.0889 10.6537H3.42425L3.72465 8.53148H19.2755L20.5819 17.8268C20.6358 18.2174 20.9926 18.4898 21.3783 18.4352C21.764 18.3806 22.033 18.0193 21.9791 17.6287L20.6867 8.53148H21.6018C22.0744 8.53148 22.5155 8.28995 22.7735 7.88875C23.0315 7.48755 23.0719 6.98125 22.8803 6.54367L20.7081 1.59181H20.7076Z" fill="currentColor"/>
</svg>
