<svg width="22" height="20" viewBox="0 0 22 20" fill="none" xmlns="http://www.w3.org/2000/svg">
  <path d="M3.5 4.125C3.5 3.03098 3.9346 1.98177 4.70818 1.20818C5.48177 0.434597 6.53098 0 7.625 0C8.71902 0 9.76823 0.434597 10.5418 1.20818C11.3154 1.98177 11.75 3.03098 11.75 4.125C11.75 5.21902 11.3154 6.26823 10.5418 7.04182C9.76823 7.8154 8.71902 8.25 7.625 8.25C6.53098 8.25 5.48177 7.8154 4.70818 7.04182C3.9346 6.26823 3.5 5.21902 3.5 4.125ZM13.25 6.375C13.25 5.93179 13.3373 5.49292 13.5069 5.08344C13.6765 4.67397 13.9251 4.30191 14.2385 3.98851C14.5519 3.67512 14.924 3.42652 15.3334 3.25691C15.7429 3.0873 16.1818 3 16.625 3C17.0682 3 17.5071 3.0873 17.9166 3.25691C18.326 3.42652 18.6981 3.67512 19.0115 3.98851C19.3249 4.30191 19.5735 4.67397 19.7431 5.08344C19.9127 5.49292 20 5.93179 20 6.375C20 7.27011 19.6444 8.12855 19.0115 8.76149C18.3786 9.39442 17.5201 9.75 16.625 9.75C15.7299 9.75 14.8715 9.39442 14.2385 8.76149C13.6056 8.12855 13.25 7.27011 13.25 6.375ZM0.5 16.875C0.5 14.9853 1.25067 13.1731 2.58686 11.8369C3.92306 10.5007 5.73533 9.75 7.625 9.75C9.51467 9.75 11.3269 10.5007 12.6631 11.8369C13.9993 13.1731 14.75 14.9853 14.75 16.875V16.878L14.749 16.997C14.7469 17.1242 14.7125 17.2487 14.6489 17.3589C14.5854 17.4691 14.495 17.5614 14.386 17.627C12.3452 18.856 10.0073 19.5036 7.625 19.5C5.153 19.5 2.839 18.816 0.865 17.627C0.755851 17.5615 0.665167 17.4693 0.601487 17.3591C0.537806 17.2489 0.503225 17.1243 0.501 16.997L0.5 16.875ZM16.25 16.878L16.249 17.022C16.2434 17.3553 16.1638 17.6832 16.016 17.982C17.7617 18.0897 19.5054 17.7416 21.076 16.972C21.1975 16.9126 21.3006 16.8215 21.3745 16.7083C21.4485 16.5951 21.4904 16.4641 21.496 16.329C21.5313 15.4902 21.3494 14.6566 20.9679 13.9088C20.5864 13.1609 20.0183 12.5243 19.3185 12.0605C18.6188 11.5967 17.8111 11.3215 16.9738 11.2615C16.1364 11.2015 15.2977 11.3587 14.539 11.718C15.6522 13.2066 16.2522 15.0162 16.249 16.875V16.878H16.25Z" fill="currentColor"/>
</svg>
