<svg width="36" height="26" viewBox="0 0 36 26" fill="none" xmlns="http://www.w3.org/2000/svg">
<path d="M14.1952 25.5C13.8406 25.5007 13.4894 25.43 13.1616 25.2919C12.8339 25.1538 12.5361 24.9511 12.2853 24.6952L0.826048 13.0017C0.567868 12.7476 0.361865 12.4437 0.22006 12.1075C0.0782549 11.7714 0.00348705 11.4098 0.000119091 11.0439C-0.00324887 10.6779 0.0648505 10.315 0.200444 9.97619C0.336037 9.6374 0.536409 9.32955 0.789867 9.0706C1.04333 8.81165 1.3448 8.6068 1.67669 8.46799C2.00858 8.32917 2.36424 8.25919 2.72293 8.2621C3.08162 8.26502 3.43614 8.34079 3.76582 8.48498C4.0955 8.62918 4.39373 8.83891 4.64311 9.10195L14.1925 18.8443L31.3868 1.30806C31.8934 0.790926 32.5805 0.500259 33.2971 0.5C34.0137 0.499742 34.7011 0.789913 35.2079 1.30668C35.7148 1.82345 35.9997 2.52448 36 3.25556C36.0003 3.98664 35.7158 4.68787 35.2093 5.20501L16.1051 24.6952C15.8543 24.9511 15.5566 25.1538 15.2288 25.2919C14.9011 25.43 14.5498 25.5007 14.1952 25.5Z" fill="#00AF00"/>
</svg>
