<svg enable-background="new 0 0 1024 1024" height="1024" viewBox="0 0 1024 1024" width="1024" xmlns="http://www.w3.org/2000/svg"><path d="m0 0h1024v1024h-1024z" fill="#8fbe22"/><g fill="#f1f0f1"><path d="m385.5 493.99c-6.7-25.5-32.7-40.6-58.2-33.9-25.5 6.8-40.7 32.8-33.9 58.2 3.2 12.1 10.7 21.8 20.4 28l-12.5 19.2 50.3-13.2c25.3-6.8 40.5-32.9 33.9-58.3zm-46.1-13c5.6 0 10.3 4.6 10.3 10.3 0 5.6-4.6 10.3-10.3 10.3s-10.3-4.6-10.3-10.3 4.6-10.3 10.3-10.3zm16.9 45.9h-33.8s-.3-21.2 16.9-21.2c17.3 0 16.9 21.2 16.9 21.2z"/><path d="m204.5 476.09-8.1 1.2 15.4 32.5h.4l15.4-32.5-8-1.2v-12h37.5v12l-8.4 1.4-27 50.9v20.9l10.6 2v11.9h-41v-11.9l10.6-2v-21.9l-26.5-49.9-8.4-1.4v-12h37.5z"/><path d="m464.3 464.09v12l-10.6 2v51.8c0 6.5 1.7 11.4 5.2 14.7 3.5 3.2 8.4 4.8 14.5 4.8 6.2 0 11.1-1.6 14.6-4.8s5.3-8.1 5.3-14.7v-51.7l-10.6-2v-12h41.1v12l-10.6 2v51.7c0 11.1-3.7 19.7-11 25.7s-16.9 9.1-28.8 9.1c-11.8 0-21.4-3-28.7-9.1-7.3-6-10.9-14.6-10.9-25.7v-51.7l-10.5-2v-12h41z"/><path d="m646.1 464.09v26.4h-15.3l-.8-11.1h-18.2v69.9l10.6 2v11.9h-41.1v-11.9l10.6-2v-69.9h-18.2l-.8 11.1h-15.2v-26.4z"/><path d="m721.5 464.09v12l-10.6 2v51.8c0 6.5 1.7 11.4 5.2 14.7 3.5 3.2 8.4 4.8 14.5 4.8 6.2 0 11.1-1.6 14.6-4.8s5.3-8.1 5.3-14.7v-51.7l-10.6-2v-12h41.1v12l-10.6 2v51.7c0 11.1-3.7 19.7-11 25.7s-16.9 9.1-28.8 9.1c-11.8 0-21.4-3-28.7-9.1-7.3-6-10.9-14.6-10.9-25.7v-51.7l-10.5-2v-12h41z"/><path d="m816 476.09v-12h41v12l-10.6 2v71.1l10.6 2v11.9h-41v-11.9l10.6-2v-71.1z"/></g></svg>