<svg width="118" height="48" viewBox="0 0 118 48" fill="none" xmlns="http://www.w3.org/2000/svg">
  <path d="M109.138 43.4595C108.599 44.4867 107.842 45.4061 106.923 46.1072C105.519 47.2963 103.735 47.9974 101.953 47.9974H42.0869C41.6017 47.9974 41.1679 47.9435 40.6827 47.8356C39.4403 47.5659 38.3595 46.8623 37.6562 45.9454C37.171 45.2982 36.7911 44.5407 36.6294 43.7292L75.3149 20.9194L77.3686 22.3781L79.0448 21.4588L109.138 43.457V43.4595Z" fill="#F43F9C"/>
  <path d="M52.5142 0H112.381C112.866 0 113.353 0.0539353 113.839 0.161806C116.377 0.757546 118 2.91741 118 5.51366C118 5.99908 117.946 6.48695 117.838 7.0263L110.057 40.7531L81.6913 20.0517L113.41 2.91741C113.356 2.86348 113.302 2.86348 113.194 2.80954C112.978 2.75561 112.709 2.75561 112.383 2.75561H52.5142C51.8672 2.75561 51.2178 2.91741 50.6248 3.18954L72.8863 19.1887L36.7935 40.4294L44.6796 6.37908C45.4368 2.91986 48.9486 0 52.5142 0Z" fill="#F43F9C"/>
  <path d="M1.35029 42.3245C0.593051 42.3245 0 41.7287 0 40.9736C0 40.2185 0.595502 39.6228 1.35029 39.6228H27.6087C28.4199 39.6228 29.0129 40.2185 29.0129 40.9736C29.0129 41.7287 28.4174 42.3245 27.6087 42.3245H1.35029Z" fill="#F43F9C"/>
  <path d="M15.8288 30.5422C15.0716 30.5422 14.4785 29.895 14.4785 29.1375C14.4785 28.3799 15.074 27.7866 15.8288 27.7866H32.471C33.2282 27.7866 33.8213 28.3824 33.8213 29.1375C33.8213 29.8926 33.2258 30.5422 32.471 30.5422H15.8288Z" fill="#F43F9C"/>
  <path d="M22.6903 18.7034C21.9331 18.7034 21.2861 18.1076 21.2861 17.3525C21.2861 16.5974 21.9331 15.9478 22.6903 15.9478H36.4677C37.225 15.9478 37.818 16.595 37.818 17.3525C37.818 18.1101 37.2225 18.7034 36.4677 18.7034H22.6903Z" fill="#F43F9C"/>
</svg>
