<svg width="36" height="26" viewBox="0 0 36 26" fill="none" xmlns="http://www.w3.org/2000/svg">
<path d="M14.1952 25.4526C13.8406 25.4534 13.4894 25.3827 13.1616 25.2446C12.8339 25.1065 12.5361 24.9037 12.2853 24.6479L0.826048 12.9543C0.567868 12.7002 0.361865 12.3963 0.22006 12.0602C0.0782549 11.724 0.00348705 11.3624 0.000119091 10.9965C-0.00324887 10.6306 0.0648505 10.2676 0.200444 9.92883C0.336037 9.59003 0.536409 9.28218 0.789867 9.02324C1.04333 8.76429 1.3448 8.55943 1.67669 8.42062C2.00858 8.28181 2.36424 8.21182 2.72293 8.21474C3.08162 8.21766 3.43614 8.29343 3.76582 8.43762C4.0955 8.58182 4.39373 8.79155 4.64311 9.05459L14.1925 18.797L31.3868 1.2607C31.8934 0.743563 32.5805 0.452895 33.2971 0.452637C34.0137 0.452378 34.7011 0.74255 35.2079 1.25932C35.7148 1.77608 35.9997 2.47712 36 3.20819C36.0003 3.93927 35.7158 4.64051 35.2093 5.15764L16.1051 24.6479C15.8543 24.9037 15.5566 25.1065 15.2288 25.2446C14.9011 25.3827 14.5498 25.4534 14.1952 25.4526Z" fill="#00AF00"/>
</svg>
