<svg width="35" height="28" viewBox="0 0 35 28" fill="none" xmlns="http://www.w3.org/2000/svg">
<path d="M1.17871 10.4286H33.3216H1.17871ZM8.32157 19.3571H10.1073H8.32157ZM17.2501 19.3571H19.0359H17.2501ZM6.53585 26.5H27.9644C29.3852 26.5 30.7478 25.9356 31.7525 24.9309C32.7572 23.9263 33.3216 22.5637 33.3216 21.1429V6.85714C33.3216 5.43634 32.7572 4.07373 31.7525 3.06907C30.7478 2.06441 29.3852 1.5 27.9644 1.5H6.53585C5.11505 1.5 3.75244 2.06441 2.74778 3.06907C1.74312 4.07373 1.17871 5.43634 1.17871 6.85714V21.1429C1.17871 22.5637 1.74312 23.9263 2.74778 24.9309C3.75244 25.9356 5.11505 26.5 6.53585 26.5Z" stroke="currentColor" stroke-width="2" stroke-linecap="round" stroke-linejoin="round"/>
</svg>
