<svg id="Layer_1" data-name="Layer 1" xmlns="http://www.w3.org/2000/svg" viewBox="0 0 72.1 79.37"><defs><style>.cls-1{fill:#0d1b47;}</style></defs><path class="cls-1" d="M48.32,31.21H46.43V27.42a9.48,9.48,0,1,0-19,0v3.79h-1.9A3.81,3.81,0,0,0,21.78,35V54a3.81,3.81,0,0,0,3.79,3.8H48.32A3.8,3.8,0,0,0,52.11,54V35A3.8,3.8,0,0,0,48.32,31.21ZM37,48.28a3.8,3.8,0,1,1,3.79-3.8A3.8,3.8,0,0,1,37,48.28ZM31.26,31.21V27.42a5.69,5.69,0,1,1,11.38,0v3.79Z"/><path class="cls-1" d="M36.05,77.47c-3.13,0-11.17-3.32-23.92-9.85a16.49,16.49,0,0,1-8.69-12,57,57,0,0,1-.73-6.68L1.9,11.2A1.76,1.76,0,0,1,3.64,9.41C23.43,9.29,33,5.46,34.32,3.07a2.3,2.3,0,0,1,2-1.17h0a2.31,2.31,0,0,1,2,1.18c1.33,2.36,10.64,6.09,30,6.09h.2a1.76,1.76,0,0,1,1.24.51,1.8,1.8,0,0,1,.51,1.25l-.39,37.9a56.52,56.52,0,0,1-.75,7,16.33,16.33,0,0,1-8.63,11.78C47.8,74.17,39.6,77.47,36.05,77.47ZM5.44,12.89l.76,36a57.7,57.7,0,0,0,.69,6.21,13,13,0,0,0,6.84,9.45C25.28,70.43,33.63,74,36.05,74c2.82,0,11.33-3.52,22.78-9.42A12.84,12.84,0,0,0,65.6,55.3a51.89,51.89,0,0,0,.71-6.51l.37-36.14c-6.76-.09-24.77-.89-30.38-6.49C30.63,11.81,12.29,12.74,5.44,12.89ZM37.36,4.8Z"/><path class="cls-1" d="M36.05,79.37c-2.22,0-7.21-1-24.79-10.06a18.38,18.38,0,0,1-9.7-13.4A58.86,58.86,0,0,1,.8,49L0,11.24A3.65,3.65,0,0,1,1,8.62,3.62,3.62,0,0,1,3.63,7.51c19.72-.12,28.18-4,29-5.38a4.19,4.19,0,0,1,7.3,0c.83,1.37,9.09,5.12,28.29,5.12a2,2,0,0,1,.33,0A3.64,3.64,0,0,1,72.1,11l-.38,37.9a57.41,57.41,0,0,1-.79,7.32A18.22,18.22,0,0,1,61.3,69.35C48.22,76.09,40,79.37,36.05,79.37ZM7.38,14.74,8.11,48.8a51.9,51.9,0,0,0,.66,5.94,11.07,11.07,0,0,0,5.82,8.07c14.25,7.3,20.19,9.25,21.46,9.25,1.86,0,8.71-2.41,21.91-9.21A10.88,10.88,0,0,0,63.72,55a51,51,0,0,0,.69-6.22l.35-34.25c-8.84-.24-22.21-1.38-28.46-5.88C30,13.19,16.37,14.44,7.38,14.74Z"/></svg>