<svg id="Layer_1" data-name="Layer 1" xmlns="http://www.w3.org/2000/svg" viewBox="0 0 108.86 79.37"><defs><style>.cls-1{fill:#fff;}.cls-2{fill:#0d1b47;}</style></defs><ellipse class="cls-1" cx="54.43" cy="39.69" rx="51.22" ry="36.47"/><path class="cls-2" d="M54.43,79.37C24.42,79.37,0,61.57,0,39.69S24.42,0,54.43,0s54.43,17.8,54.43,39.69S84.45,79.37,54.43,79.37Zm0-72.94c-26.46,0-48,14.92-48,33.26S28,72.94,54.43,72.94s48-14.92,48-33.25S80.9,6.43,54.43,6.43Z"/><path class="cls-2" d="M33.17,40.57a6,6,0,1,0-6-6A5.93,5.93,0,0,0,33.17,40.57Z"/><path class="cls-2" d="M33.17,44.55c-4.63,0-13.91,2.32-13.91,7v3a2,2,0,0,0,2,2H45.09a2,2,0,0,0,2-2v-3C47.08,46.87,37.8,44.55,33.17,44.55Z"/><path class="cls-2" d="M58.83,49.23a8,8,0,1,1,8-8A8,8,0,0,1,58.83,49.23Zm0-13.28a5.24,5.24,0,1,0,5.23,5.24A5.25,5.25,0,0,0,58.83,36Z"/><path class="cls-2" d="M75.84,33.53a8,8,0,1,1,8-8A8,8,0,0,1,75.84,33.53Zm0-13.28a5.24,5.24,0,1,0,5.23,5.24A5.25,5.25,0,0,0,75.84,20.25Z"/><path class="cls-2" d="M78.92,60.25a8,8,0,1,1,8-8A8.05,8.05,0,0,1,78.92,60.25Zm0-13.28a5.24,5.24,0,1,0,5.24,5.24A5.25,5.25,0,0,0,78.92,47Z"/><rect class="cls-2" x="44.16" y="46.27" width="10.15" height="2.8" transform="translate(-15.32 24.67) rotate(-24.46)"/><rect class="cls-2" x="62.68" y="32.37" width="9.42" height="2.8" transform="translate(-4.25 57.21) rotate(-44.74)"/><rect class="cls-2" x="66.93" y="42.6" width="2.8" height="9.88" transform="translate(-2.47 91.32) rotate(-66.56)"/></svg>