<svg xmlns="http://www.w3.org/2000/svg" viewBox="0 0 90.9 87.37"><defs><style>.cls-1{fill:#0d1b47;}</style></defs><g id="Layer_2" data-name="Layer 2"><g id="Layer_1-2" data-name="Layer 1"><path class="cls-1" d="M33.81,87.37a7.88,7.88,0,0,1-6.76-3.85l-4.73-8L13.26,73.5A7.9,7.9,0,0,1,7.18,65L8,55.83,1.94,48.88a8,8,0,0,1,0-10.39L8,31.5l-.85-9.18a7.88,7.88,0,0,1,6.14-8.43l9-2,4.75-7.94A7.84,7.84,0,0,1,37,.72l8.46,3.62L54,.64a7.91,7.91,0,0,1,9.88,3.19l4.73,8,9,2.07a7.88,7.88,0,0,1,6.09,8.45l-.85,9.18,6.11,7a7.74,7.74,0,0,1-.1,10.36l-6,6.9L83.66,65a7.87,7.87,0,0,1-6.1,8.43l-9,2.06-4.72,8a7.84,7.84,0,0,1-9.89,3.23L45.45,83,37,86.71A8.07,8.07,0,0,1,33.81,87.37Zm23.1-8ZM15.15,65.72l12.29,2.81,6.43,10.81,11.55-5,11.56,5,6.41-10.84,12.3-2.8L74.53,53.06l8.28-9.44-8.25-9.4,1.17-12.55-12.3-2.81L57,8l-11.56,5-11.55-5-6.47,10.8L15.15,21.68l1.16,12.49L8,43.68l8.3,9.46ZM57.08,79.29ZM15.15,65.8h0Zm60.55-.08Zm.1-.14Zm-.07-44h0ZM33.8,8.06ZM34,8h0Z"/><path class="cls-1" d="M58.53,41.14V33.38a2.23,2.23,0,0,0-2.22-2.22H29.69a2.23,2.23,0,0,0-2.22,2.22V55.57a2.22,2.22,0,0,0,2.22,2.21H56.31a2.22,2.22,0,0,0,2.22-2.21V47.8l5.08,5.08a2.23,2.23,0,0,0,3.8-1.57V37.62A2.23,2.23,0,0,0,63.61,36Z"/></g></g></svg>