<svg style="width:35px; fill: initial" width="30" height="30" viewBox="0 0 30 30" fill="initial" xmlns="http://www.w3.org/2000/svg">
<path d="M16.25 23.75C16.25 19.6125 19.6125 16.25 23.75 16.25C25.125 16.25 26.4 16.625 27.5 17.2625V7.5C27.5 6.1125 26.375 5 25 5H5C3.6125 5 2.5 6.1125 2.5 7.5V22.5C2.5 23.8875 3.625 25 5 25H16.3625C16.3 24.5875 16.25 24.175 16.25 23.75ZM5 10V7.5L15 13.75L25 7.5V10L15 16.25L5 10ZM25 18.75V22.5H28.75V25H25V28.75H22.5V25H18.75V22.5H22.5V18.75H25Z" fill="#3F9CF4"/>
</svg>
