<svg width="250" height="32" viewBox="0 0 250 32" fill="none" xmlns="http://www.w3.org/2000/svg">
  <g clip-path="url(#clip0_1870_6859)">
    <path d="M54.0833 7.66363H66.9734V9.39945H61.6359V24.971H59.7573V9.39945H54.0833V7.66363ZM79.267 17.0694V15.3939H73.2662V17.0694H79.267ZM72.2761 17.0694V9.33915H81.0472V7.6668H70.407V24.9742H81.3106V23.2606L72.2761 23.2479V17.0726V17.0694ZM88.9552 9.86593C89.7136 9.3455 90.6529 9.08846 91.7731 9.08846C92.6204 9.08846 93.3503 9.25982 93.9659 9.60572C94.5815 9.94844 95.0734 10.4086 95.4415 10.9798C95.8128 11.5541 96.0667 12.1888 96.2031 12.8838H98.2118C98.1103 11.9096 97.7771 11.0115 97.2186 10.1801C96.6601 9.35185 95.9175 8.68545 94.9941 8.18088C94.0675 7.6795 93.0044 7.4288 91.808 7.4288C90.269 7.4288 88.9584 7.77152 87.8826 8.45696C86.8037 9.14241 85.9849 10.142 85.4201 11.4621C84.8584 12.7791 84.5792 14.3879 84.5792 16.2856C84.5792 18.1833 84.8616 19.7953 85.4264 21.1281C85.9945 22.4546 86.8132 23.4669 87.8889 24.1682C88.9615 24.8663 90.269 25.2122 91.808 25.2122C92.7918 25.2122 93.6613 25.0599 94.4229 24.7584C95.1845 24.457 95.8287 24.0413 96.3618 23.5208C96.8917 22.9972 97.3106 22.4038 97.6184 21.7374C97.9262 21.0742 98.1262 20.3824 98.2087 19.6747H96.1999C96.0635 20.3697 95.8096 21.0107 95.4383 21.5978C95.0702 22.1817 94.5784 22.6513 93.9627 23.0067C93.3471 23.3653 92.6172 23.543 91.77 23.543C90.0881 23.543 88.8124 22.956 87.9461 21.7818C87.0798 20.6077 86.6482 18.7862 86.6482 16.3142C86.6482 14.6704 86.8386 13.3154 87.2257 12.2523C87.6129 11.1829 88.1872 10.3959 88.952 9.87545L88.9552 9.86593ZM102.074 24.971H103.94V7.66363H102.074V24.971ZM113.755 14.1531H113.758V15.1527H104.914V16.8409H113.758V17.8723H113.755V24.9679H115.621V7.66363H113.755V14.1563V14.1531ZM131.697 8.29512C130.72 7.8699 129.612 7.66046 128.374 7.66046H122.38V24.9679H124.989V19.5065L124.976 15.781V9.73582H128.555C129.672 9.73582 130.589 10.0214 131.31 10.5895C132.027 11.1607 132.386 11.9794 132.386 13.0488C132.386 14.1182 132.04 14.9496 131.348 15.5843C130.65 16.219 129.755 16.5331 128.654 16.5331H125.899V18.6275H128.727C129.939 18.6275 131.008 18.4181 131.929 17.9897C132.852 17.5613 133.569 16.9457 134.083 16.1333C134.597 15.3241 134.854 14.3467 134.854 13.1948C134.854 12.0428 134.572 10.9893 134.01 10.1674C133.449 9.3455 132.674 8.72035 131.7 8.30147L131.697 8.29512ZM141.671 7.66046L135.422 24.9679H138.021L139.392 21.1789L140.468 17.6121L143.07 10.1484L145.799 18.1103H141.258L140.582 20.43H146.596L148.151 24.9679H150.734L144.498 7.66046H141.671ZM164.766 16.4982C164.132 16.0381 163.288 15.6922 162.234 15.4637L158.883 14.6386C158.029 14.4324 157.385 14.1373 156.95 13.7501C156.516 13.3693 156.297 12.8457 156.297 12.1825C156.297 11.4653 156.595 10.8433 157.192 10.3229C157.785 9.79929 158.674 9.5359 159.854 9.5359C160.524 9.5359 161.136 9.63428 161.691 9.82468C162.247 10.0151 162.704 10.3261 163.069 10.764C163.43 11.1987 163.646 11.7826 163.719 12.5157H166.328C166.321 11.6144 166.071 10.7799 165.582 10.0087C165.09 9.24078 164.373 8.61881 163.427 8.14915C162.482 7.6795 161.32 7.44149 159.94 7.44149C158.734 7.44149 157.655 7.64459 156.703 8.05395C155.748 8.46014 154.992 9.03769 154.437 9.78342C153.882 10.5292 153.606 11.4082 153.606 12.411C153.606 13.3154 153.78 14.0706 154.133 14.6831C154.485 15.2923 154.98 15.7842 155.618 16.1523C156.255 16.5236 156.995 16.8092 157.833 17.0091L161.304 17.8691C162.19 18.1008 162.853 18.4117 163.297 18.7957C163.741 19.1829 163.96 19.7096 163.96 20.3697C163.96 20.9599 163.783 21.4613 163.421 21.8643C163.062 22.2705 162.593 22.5847 162.012 22.7973C161.428 23.0131 160.793 23.1242 160.108 23.1242C159.365 23.1242 158.689 23.0163 158.077 22.7973C157.468 22.5847 156.96 22.2642 156.557 21.8421C156.154 21.4169 155.884 20.8965 155.748 20.2745H153.079C153.181 21.0964 153.441 21.8167 153.85 22.4292C154.259 23.0417 154.783 23.5526 155.418 23.9651C156.052 24.3808 156.76 24.6886 157.534 24.8949C158.312 25.1012 159.124 25.2027 159.975 25.2027C161.288 25.2027 162.44 24.9869 163.427 24.5522C164.414 24.1174 165.182 23.5208 165.731 22.7561C166.283 21.9945 166.556 21.1218 166.556 20.1412C166.556 19.4082 166.42 18.7323 166.137 18.1135C165.858 17.4946 165.401 16.9552 164.766 16.495V16.4982ZM181.595 16.4982C180.96 16.0381 180.116 15.6922 179.062 15.4637L175.711 14.6386C174.858 14.4324 174.213 14.1373 173.779 13.7501C173.344 13.3693 173.128 12.8457 173.128 12.1825C173.128 11.4653 173.423 10.8433 174.02 10.3229C174.613 9.79929 175.502 9.5359 176.682 9.5359C177.352 9.5359 177.964 9.63428 178.52 9.82468C179.075 10.0151 179.532 10.3261 179.897 10.764C180.259 11.1987 180.478 11.7826 180.547 12.5157H183.156C183.15 11.6144 182.899 10.7799 182.41 10.0087C181.918 9.24078 181.201 8.61881 180.255 8.14915C179.313 7.6795 178.148 7.44149 176.768 7.44149C175.562 7.44149 174.483 7.64459 173.531 8.05395C172.576 8.46014 171.821 9.03769 171.265 9.78342C170.713 10.5292 170.434 11.4082 170.434 12.411C170.434 13.3154 170.612 14.0706 170.961 14.6831C171.313 15.2923 171.808 15.7842 172.446 16.1523C173.084 16.5236 173.823 16.8092 174.661 17.0091L178.133 17.8691C179.018 18.1008 179.681 18.4117 180.125 18.7957C180.57 19.1829 180.789 19.7096 180.789 20.3697C180.789 20.9599 180.611 21.4613 180.249 21.8643C179.891 22.2705 179.421 22.5847 178.84 22.7973C178.256 23.0131 177.622 23.1242 176.936 23.1242C176.194 23.1242 175.518 23.0163 174.905 22.7973C174.296 22.5847 173.788 22.2642 173.385 21.8421C172.982 21.4169 172.712 20.8965 172.576 20.2745H169.907C170.012 21.0964 170.269 21.8167 170.678 22.4292C171.088 23.0417 171.611 23.5526 172.246 23.9651C172.881 24.3808 173.588 24.6886 174.366 24.8949C175.14 25.1012 175.952 25.2027 176.8 25.2027C178.113 25.2027 179.265 24.9869 180.252 24.5522C181.239 24.1174 182.007 23.5208 182.556 22.7561C183.108 21.9945 183.384 21.1218 183.384 20.1412C183.384 19.4082 183.242 18.7323 182.962 18.1135C182.683 17.4946 182.226 16.9552 181.591 16.495L181.595 16.4982ZM196.678 8.29512C195.697 7.8699 194.589 7.66046 193.355 7.66046H187.361V24.9679H189.966L189.626 9.72948H193.536C194.653 9.72948 195.57 10.0151 196.287 10.5831C197.008 11.1543 197.366 11.973 197.366 13.0424C197.366 14.1119 197.017 14.9433 196.325 15.5779C195.63 16.2126 194.735 16.5268 193.634 16.5268H190.854V18.6212H193.707C194.919 18.6212 195.986 18.4117 196.909 17.9833C197.829 17.5549 198.55 16.9393 199.061 16.1269C199.578 15.3177 199.832 14.3403 199.832 13.1884C199.832 12.0365 199.553 10.9829 198.991 10.1611C198.426 9.33915 197.655 8.71401 196.681 8.29512H196.678ZM216.628 11.5319C217.247 12.8584 217.555 14.4673 217.555 16.3491C217.555 18.2309 217.25 19.808 216.635 21.125C216.019 22.4387 215.146 23.4478 214.007 24.1523C212.871 24.8568 211.522 25.2027 209.967 25.2027C208.413 25.2027 207.035 24.8536 205.893 24.1587C204.747 23.4574 203.865 22.4482 203.246 21.1281C202.628 19.8112 202.32 18.215 202.32 16.3491C202.32 14.4831 202.631 12.8584 203.256 11.5319C203.884 10.2055 204.77 9.18366 205.915 8.47918C207.058 7.77152 208.409 7.41928 209.967 7.41928C211.526 7.41928 212.855 7.77152 213.994 8.47918C215.131 9.18683 216.01 10.2055 216.628 11.5319ZM214.747 16.384C214.747 14.8132 214.556 13.528 214.179 12.5315C213.798 11.5319 213.252 10.7957 212.538 10.3229C211.821 9.84689 210.967 9.60889 209.971 9.60889C208.974 9.60889 208.114 9.85006 207.391 10.3292C206.667 10.8052 206.112 11.5446 205.722 12.5411C205.331 13.5407 205.134 14.8227 205.134 16.384C205.134 17.9453 205.331 19.1829 205.722 20.1603C206.112 21.1408 206.667 21.858 207.391 22.3245C208.114 22.7878 208.971 23.0194 209.971 23.0194C210.97 23.0194 211.833 22.7878 212.547 22.3245C213.265 21.8612 213.807 21.1376 214.185 20.1571C214.559 19.1733 214.747 17.9199 214.747 16.384ZM232.359 16.3618C232.857 15.9714 233.266 15.4637 233.58 14.8417C233.895 14.2166 234.053 13.4423 234.053 12.5093C234.053 11.5192 233.847 10.6624 233.428 9.93574C233.012 9.20905 232.384 8.64737 231.537 8.25387C230.693 7.86038 229.623 7.66363 228.341 7.66363H221.468V24.971H224.032V9.71044H228.087C229.115 9.71044 229.934 9.96113 230.537 10.453C231.14 10.948 231.442 11.6747 231.442 12.6331C231.442 13.5914 231.108 14.3562 230.448 14.8766C229.785 15.4002 228.852 15.6605 227.646 15.6605H224.987V17.7326H228.379L231.442 24.9774H234.133L230.785 17.2916C231.334 17.0694 231.86 16.7584 232.355 16.3681L232.359 16.3618ZM236.367 7.66046V9.99286H241.847V24.9679H244.433V9.99921H249.663V7.6668H236.367V7.66046Z" fill="#F5F5F7"/>
    <path d="M28.3824 32C37.2189 32 44.3824 24.8366 44.3824 16C44.3824 7.16344 37.2189 0 28.3824 0C19.5458 0 12.3824 7.16344 12.3824 16C12.3824 24.8366 19.5458 32 28.3824 32Z" fill="#231F20"/>
    <path opacity="0.65" d="M28.3824 32C37.2189 32 44.3824 24.8366 44.3824 16C44.3824 7.16344 37.2189 0 28.3824 0C19.5458 0 12.3824 7.16344 12.3824 16C12.3824 24.8366 19.5458 32 28.3824 32Z" fill="url(#paint0_linear_1870_6859)"/>
    <path d="M15.1876 6.17851C15.1305 5.91195 15.2067 5.62318 15.4129 5.41374C15.7398 5.08688 16.2697 5.08688 16.5966 5.41374C16.9234 5.74059 16.9234 6.27054 16.5966 6.5974C16.3903 6.80366 16.1016 6.87982 15.8318 6.8227L11.9 10.7545C11.9572 11.021 11.881 11.3098 11.6747 11.5193C11.3479 11.8461 10.8179 11.8461 10.4911 11.5193C10.1642 11.1924 10.1642 10.6624 10.4911 10.3356C10.6973 10.1293 10.9861 10.0532 11.2559 10.1103L15.1876 6.17851ZM13.4074 24.0889C13.6739 24.146 13.9659 24.0698 14.1722 23.8636C14.499 23.5367 14.499 23.0068 14.1722 22.6799C13.8453 22.353 13.3154 22.353 12.9885 22.6799C12.7822 22.8862 12.7061 23.1749 12.7632 23.4415L9.33916 26.8655C9.07259 26.8084 8.78382 26.8846 8.57438 27.0909C8.24753 27.4177 8.24753 27.9477 8.57438 28.2745C8.90123 28.6014 9.43118 28.6014 9.75804 28.2745C9.9643 28.0682 10.0405 27.7763 9.98334 27.5097L13.4074 24.0857V24.0889ZM2.63388 13.2233C2.85919 12.998 2.92583 12.6807 2.84015 12.3951L8.34273 6.89569C8.62833 6.9782 8.94566 6.91156 9.17097 6.68942C9.49782 6.36257 9.49782 5.83262 9.17097 5.50577C8.84411 5.17891 8.31417 5.17891 7.98731 5.50577C7.80008 5.69299 7.72392 5.95003 7.75248 6.19438L2.13884 11.8017C1.89449 11.7731 1.63745 11.8493 1.45022 12.0365C1.12337 12.3634 1.12337 12.8933 1.45022 13.2202C1.77708 13.547 2.30703 13.547 2.63388 13.2202V13.2233ZM1.85958 17.6248C2.06585 17.4185 2.14201 17.1266 2.08489 16.86L6.58787 12.357C6.85443 12.4141 7.1432 12.338 7.35264 12.1317C7.6795 11.8049 7.6795 11.2749 7.35264 10.9481C7.02579 10.6212 6.49584 10.6212 6.16899 10.9481C5.96272 11.1543 5.88656 11.4431 5.94368 11.7128L1.4407 16.2158C1.17414 16.1587 0.885368 16.2348 0.675927 16.4411C0.349073 16.768 0.349073 17.2979 0.675927 17.6248C1.00278 17.9516 1.53273 17.9516 1.85958 17.6248ZM23.3082 16.0635C23.1019 16.2697 23.0258 16.5617 23.0829 16.8283L18.4879 21.4233C18.2213 21.3661 17.9326 21.4423 17.7231 21.6486C17.3963 21.9754 17.3963 22.5054 17.7231 22.8322C18.05 23.1591 18.5799 23.1591 18.9068 22.8322C19.1131 22.626 19.1892 22.3372 19.1321 22.0674L23.7271 17.4724C23.9937 17.5296 24.2824 17.4534 24.4919 17.2471C24.8187 16.9203 24.8187 16.3903 24.4919 16.0635C24.165 15.7366 23.6351 15.7366 23.3082 16.0635ZM22.7814 20.2967C22.5752 20.503 22.499 20.7918 22.5561 21.0615L17.0091 26.6085C16.7426 26.5514 16.4538 26.6275 16.2444 26.8338C15.9175 27.1607 15.9175 27.6906 16.2444 28.0175C16.5712 28.3443 17.1012 28.3443 17.428 28.0175C17.6343 27.8112 17.7104 27.5193 17.6533 27.2527L23.2003 21.7057C23.4669 21.7628 23.7557 21.6866 23.9651 21.4804C24.292 21.1535 24.292 20.6236 23.9651 20.2967C23.6382 19.9699 23.1083 19.9699 22.7814 20.2967ZM2.33876 20.8552C2.54503 20.649 2.62119 20.357 2.56407 20.0905L5.53749 17.1139C5.80405 17.171 6.096 17.0948 6.30227 16.8885C6.50853 16.6823 6.58469 16.3903 6.52757 16.1206L9.19001 13.455V9.74853L12.5982 6.34035C12.8647 6.39747 13.1535 6.32131 13.363 6.11505C13.6898 5.78819 13.6898 5.25824 13.363 4.93139C13.0361 4.60454 12.5062 4.60454 12.1793 4.93139C11.973 5.13766 11.8969 5.42643 11.954 5.69617L8.27926 9.3709V13.0774L5.88021 15.4764C5.61365 15.4225 5.32488 15.4955 5.11861 15.7049C4.91234 15.9143 4.83618 16.1999 4.89013 16.4665L1.91353 19.4431C1.64697 19.386 1.3582 19.4621 1.14876 19.6684C0.821901 19.9953 0.821901 20.5252 1.14876 20.8521C1.47561 21.1789 2.00556 21.1789 2.33241 20.8521L2.33876 20.8552ZM22.8322 12.8298C22.6259 13.0361 22.5498 13.3249 22.6069 13.5946L19.1289 17.0726C18.8624 17.0155 18.5736 17.0916 18.3641 17.2979C18.1547 17.5042 18.0817 17.793 18.1388 18.0627L15.9334 20.2682V23.9778L12.5696 27.3415C12.3031 27.2844 12.0143 27.3606 11.8048 27.5669C11.478 27.8937 11.478 28.4237 11.8048 28.7505C12.1317 29.0774 12.6616 29.0774 12.9885 28.7505C13.1948 28.5442 13.2709 28.2555 13.2138 27.9857L16.8441 24.3554V20.6458L18.783 18.7069C19.0496 18.764 19.3384 18.6878 19.5478 18.4816C19.7572 18.2753 19.8302 17.9834 19.7731 17.7168L23.2511 14.2388C23.5177 14.2959 23.8064 14.2198 24.0159 14.0135C24.3427 13.6866 24.3427 13.1567 24.0159 12.8298C23.689 12.503 23.1591 12.503 22.8322 12.8298ZM20.1698 8.07617C19.9635 8.28244 19.8874 8.57122 19.9445 8.84095L16.7775 12.0079C16.549 11.9953 16.3173 12.0746 16.1428 12.2491C15.8159 12.576 15.8159 13.1059 16.1428 13.4328C16.4697 13.7596 16.9996 13.7596 17.3265 13.4328C17.5645 13.1948 17.6248 12.8521 17.52 12.5569L20.5918 9.48514C20.8584 9.54226 21.1472 9.4661 21.3566 9.25983C21.6835 8.93298 21.6835 8.40303 21.3566 8.07617C21.0298 7.74932 20.4998 7.74932 20.173 8.07617H20.1698ZM5.29949 24.7743L8.29513 21.7787C8.59025 21.8866 8.93297 21.8231 9.17097 21.5851C9.49782 21.2582 9.49782 20.7283 9.17097 20.4014C8.84411 20.0746 8.31417 20.0746 7.98731 20.4014C7.81278 20.576 7.73344 20.8076 7.74614 21.0361L4.6553 24.1269C4.38874 24.0698 4.09997 24.146 3.89052 24.3523C3.56367 24.6791 3.56367 25.2091 3.89052 25.5359C4.21738 25.8628 4.74733 25.8628 5.07418 25.5359C5.28045 25.3296 5.35661 25.0409 5.29949 24.7711V24.7743ZM3.53194 23.3685C3.7382 23.1623 3.81436 22.8703 3.75724 22.6037L11.3447 15.0163C11.6113 15.0734 11.9 14.9972 12.1095 14.791C12.4363 14.4641 12.4363 13.9342 12.1095 13.6073C11.7826 13.2805 11.2527 13.2805 10.9258 13.6073C10.7196 13.8136 10.6434 14.1024 10.7005 14.3721L3.11306 21.9596C2.84649 21.9024 2.55772 21.9786 2.34828 22.1849C2.02142 22.5117 2.02142 23.0417 2.34828 23.3685C2.67513 23.6954 3.20508 23.6954 3.53194 23.3685ZM21.566 10.3832C21.3598 10.5895 21.2836 10.8782 21.3407 11.148L13.071 19.4177C12.8044 19.3638 12.5157 19.4367 12.3094 19.643C11.9826 19.9699 11.9826 20.4998 12.3094 20.8267C12.6363 21.1535 13.1662 21.1535 13.4931 20.8267C13.7025 20.6172 13.7755 20.3285 13.7184 20.0619L21.9849 11.7953C22.2515 11.8525 22.5403 11.7763 22.7497 11.57C23.0766 11.2432 23.0766 10.7132 22.7497 10.3864C22.4229 10.0595 21.8929 10.0595 21.566 10.3864V10.3832ZM7.46688 26.3134L11.0559 22.7243L11.0496 19.0242L14.4705 15.6033V11.8937L18.2785 8.08569C18.545 8.14281 18.8338 8.06665 19.0432 7.86039C19.3701 7.53353 19.3701 7.00358 19.0432 6.67673C18.7164 6.34987 18.1864 6.34987 17.8596 6.67673C17.6533 6.883 17.5772 7.17177 17.6343 7.44151L13.5597 11.5161V15.2257L10.1388 18.6498L10.1452 22.3499L6.82587 25.6692C6.55931 25.6121 6.27053 25.6882 6.06109 25.8945C5.73424 26.2214 5.73424 26.7513 6.06109 27.0782C6.38795 27.405 6.91789 27.405 7.24475 27.0782C7.45102 26.8719 7.52718 26.5799 7.47006 26.3134H7.46688Z" fill="url(#paint1_linear_1870_6859)"/>
  </g>
  <defs>
    <linearGradient id="paint0_linear_1870_6859" x1="17.0694" y1="4.68703" x2="39.6954" y2="27.313" gradientUnits="userSpaceOnUse">
      <stop stop-color="#E57FEF"/>
      <stop offset="0.97" stop-color="#8D84F1"/>
    </linearGradient>
    <linearGradient id="paint1_linear_1870_6859" x1="3.91154" y1="25.5579" x2="21.3713" y2="8.09814" gradientUnits="userSpaceOnUse">
      <stop stop-color="#09DB9F"/>
      <stop offset="0.97" stop-color="#13B4DE"/>
    </linearGradient>
    <clipPath id="clip0_1870_6859">
      <rect width="249.825" height="32" fill="white"/>
    </clipPath>
  </defs>
</svg>
