<svg width="120" height="64" viewBox="0 0 120 64" fill="none" xmlns="http://www.w3.org/2000/svg">
  <g clip-path="url(#clip0_2406_14014)">
    <path d="M59.9885 0C40.5873 0 26.7565 6.56987 17.4417 13.5261C12.7842 17.0029 9.21723 20.5641 6.58891 23.3783C3.95802 26.1951 1.66917 28.4899 2.00093 28.2699C0.751062 29.1014 0.00268555 30.4982 0.00268555 31.9923C0.00268555 33.4864 0.753634 34.8833 2.00093 35.7147C1.60231 35.4487 3.92459 37.7921 6.54262 40.6524C9.16066 43.5126 12.6942 47.1353 17.3491 50.6556C26.6588 57.7013 40.5462 64.2891 60.0528 63.9898C78.8085 63.7032 92.5956 57.1282 102.031 50.2846C106.748 46.8615 110.42 43.3796 113.149 40.614C115.878 37.8484 118.202 35.5843 118.002 35.7173C119.252 34.8858 120.003 33.4915 120.003 31.9949C120.003 30.4982 119.252 29.1039 118.002 28.2725C118.251 28.4388 115.901 26.126 113.172 23.3169C110.446 20.5078 106.774 16.9747 102.049 13.5107C92.6008 6.58267 78.7777 0 59.986 0H59.9885ZM59.9937 10.2667C65.7878 10.2667 71.3454 12.5564 75.4421 16.6319C79.5389 20.7074 81.8406 26.236 81.8406 32C81.8406 37.764 79.5363 43.2901 75.4396 47.3655C71.3428 51.441 65.7853 53.7282 59.9911 53.7282C54.197 53.7282 48.6446 51.4384 44.5478 47.363C40.451 43.2875 38.1493 37.7614 38.1493 32C38.1493 26.236 40.451 20.7099 44.5452 16.6319C48.642 12.5564 54.197 10.2667 59.9911 10.2642L59.9937 10.2667Z" fill="#F43F9C"/>
    <path d="M44.2263 31.9106C44.2263 40.6371 51.0723 47.5933 59.8625 47.5933C65.3352 47.5933 69.72 45.3496 72.6852 41.4021C74.3465 39.1917 75.2981 36.8661 75.7121 34.1824C76.0156 32.2278 74.9483 31.9438 73.2073 32.8802C71.5974 33.7449 69.738 34.1491 67.8169 34.1517C62.0176 34.1517 57.3165 29.4827 57.3191 23.7238C57.3191 22.0506 57.7254 20.421 58.4815 18.9627C59.3893 17.2128 59.0113 16.0743 57.067 16.4734C52.8674 17.3356 49.6475 19.6611 47.5593 22.3602C45.3064 25.2716 44.4526 28.5233 44.2289 31.908H44.2263V31.9106Z" fill="#F43F9C"/>
  </g>
  <defs>
    <clipPath id="clip0_2406_14014">
      <rect width="120" height="64" fill="white"/>
    </clipPath>
  </defs>
</svg>
