<svg id="Layer_1" data-name="Layer 1" xmlns="http://www.w3.org/2000/svg" viewBox="0 0 82.58 79.37"><defs><style>.cls-1{fill:#57aa00;}</style></defs><path class="cls-1" d="M30.71,79.37a7.15,7.15,0,0,1-6.13-3.49l-4.3-7.23-8.23-1.88a7.15,7.15,0,0,1-5.52-7.68l.77-8.37L1.76,44.41a7.22,7.22,0,0,1,0-9.44L7.3,28.61l-.78-8.33a7.17,7.17,0,0,1,5.58-7.66l8.19-1.85,4.32-7.21a7.12,7.12,0,0,1,9-2.91L41.27,4,49,.58a7.2,7.2,0,0,1,9,2.9l4.3,7.27,8.22,1.87A7.18,7.18,0,0,1,76,20.31l-.77,8.33L80.82,35a7,7,0,0,1-.09,9.41l-5.5,6.27L76,59a7.15,7.15,0,0,1-5.55,7.66l-8.2,1.87L58,75.78a7.13,7.13,0,0,1-9,2.93L41.3,75.42l-7.71,3.36A7.35,7.35,0,0,1,30.71,79.37Zm21-7.27ZM13.77,59.71l11.16,2.55,5.84,9.82,10.5-4.58L51.76,72l5.83-9.84L68.76,59.6,67.71,48.2l7.52-8.58-7.49-8.53,1.06-11.4L57.63,17.14,51.8,7.3,41.29,11.86,30.8,7.37l-5.88,9.81L13.77,19.69l1.05,11.36L7.28,39.68l7.54,8.59ZM51.86,72ZM13.76,59.78h0Zm55-.07Zm.09-.13Zm-.06-40ZM30.71,7.32Zm.16-.06h0Z"/><circle class="cls-1" cx="41.29" cy="41.26" r="10.62"/></svg>