<svg xmlns="http://www.w3.org/2000/svg" viewBox="0 0 79.37 79.37"><defs><style>.cls-1{fill:#0d1b47;}</style></defs><g id="Layer_2" data-name="Layer 2"><g id="Layer_1-2" data-name="Layer 1"><path class="cls-1" d="M39.68,79.37A39.69,39.69,0,1,1,79.37,39.68,39.73,39.73,0,0,1,39.68,79.37Zm0-72.1A32.42,32.42,0,1,0,72.1,39.68,32.45,32.45,0,0,0,39.68,7.27Z"/><path class="cls-1" d="M30.31,39.38c-4.23,0-11.76,1.64-14.77,4.86A23,23,0,0,0,30.31,58.49V47.72c-.16-2.31.17-6.7,5.45-7.7A28.59,28.59,0,0,0,30.31,39.38Z"/><circle class="cls-1" cx="30.31" cy="28.26" r="6.78" transform="translate(-11.11 29.71) rotate(-45)"/><path class="cls-1" d="M60.35,46.92c-.26-4.9-2.14-4.67-12.66-4.57-9.57.09-12.79-.9-12.79,5.37V59.41a19,19,0,0,0,2.27.11c8.2,0,15.55.1,20.57,0A2.69,2.69,0,0,0,60.4,57C60.47,54.35,60.53,50.24,60.35,46.92ZM48.46,52.47a2.25,2.25,0,1,1,2.25-2.25A2.25,2.25,0,0,1,48.46,52.47Z"/></g></g></svg>