<svg xmlns="http://www.w3.org/2000/svg" viewBox="0 0 82.2 82.2"><defs><style>.cls-1{fill:#0d1b47;}.cls-2{fill:#fff;}</style></defs><g id="Layer_2" data-name="Layer 2"><g id="Layer_1-2" data-name="Layer 1"><circle class="cls-1" cx="41.1" cy="41.1" r="41.1"/><path class="cls-2" d="M26.39,25H25.32V22.83a5.37,5.37,0,0,0-10.74,0V25H13.51a2.15,2.15,0,0,0-2.15,2.15V37.86A2.15,2.15,0,0,0,13.51,40H26.39a2.16,2.16,0,0,0,2.15-2.15V27.13A2.15,2.15,0,0,0,26.39,25ZM20,34.64a2.15,2.15,0,1,1,2.14-2.15A2.16,2.16,0,0,1,20,34.64ZM16.73,25V22.83a3.22,3.22,0,0,1,6.44,0V25Z"/><path class="cls-2" d="M49.35,62.6a3.2,3.2,0,1,0-3.21-3.2A3.19,3.19,0,0,0,49.35,62.6Zm-8.54,0a3.2,3.2,0,1,0-3.2-3.2A3.19,3.19,0,0,0,40.81,62.6Zm0,2.14c-2.49,0-7.47,1.25-7.47,3.73v1.6a1.07,1.07,0,0,0,1.06,1.07H47.21a1.07,1.07,0,0,0,1.07-1.07v-1.6C48.28,66,43.29,64.74,40.81,64.74Zm8.54,0c-.31,0-.67,0-1,.05,0,0,0,0,0,0a4.44,4.44,0,0,1,2.06,3.64v1.6a3.12,3.12,0,0,1-.19,1.07h5.53a1.07,1.07,0,0,0,1.07-1.07v-1.6C56.82,66,51.83,64.74,49.35,64.74Z"/><path class="cls-2" d="M32.27,62.6a3.2,3.2,0,1,1,3.2-3.2A3.19,3.19,0,0,1,32.27,62.6Z"/><path class="cls-2" d="M32.27,64.74c.31,0,.66,0,1,.05,0,0,0,0,0,0a4.46,4.46,0,0,0-2.06,3.64v1.6a3.38,3.38,0,0,0,.19,1.07H25.87a1.07,1.07,0,0,1-1.07-1.07v-1.6C24.8,66,29.78,64.74,32.27,64.74Z"/><path class="cls-2" d="M59.79,28.3a15.18,15.18,0,0,1,3,.35,2.72,2.72,0,0,0-.51.13c-2.65,1.1-2.55,2.42-2.51,5.91v2.75c0,.63,0,1.16,0,1.74H50.63a1.79,1.79,0,0,1-1.77-1.8V34.69C48.86,30.5,55.67,28.3,59.79,28.3Z"/><path class="cls-2" d="M59.74,25.91A3.95,3.95,0,1,1,63.69,22,3.94,3.94,0,0,1,59.74,25.91Z"/><path class="cls-2" d="M76.39,32.47c-.15-2.71-1.18-2.58-7-2.53-5.28,0-7.06-.5-7.06,3v6.46q.62.06,1.26.06c4.53,0,8.58,0,11.36,0A1.47,1.47,0,0,0,76.42,38C76.46,36.57,76.49,34.3,76.39,32.47Zm-6.57,3.06a1.24,1.24,0,1,1,1.24-1.24A1.23,1.23,0,0,1,69.82,35.53Z"/><rect class="cls-2" x="39.84" width="2.53" height="41.1"/><rect class="cls-2" x="2.76" y="50.14" width="41.11" height="2.53" transform="translate(-22.63 18.62) rotate(-30.09)"/><rect class="cls-2" x="57.6" y="30.88" width="2.53" height="41.11" transform="translate(-15.19 76.46) rotate(-59.81)"/></g></g></svg>