<svg id="Layer_1" data-name="Layer 1" xmlns="http://www.w3.org/2000/svg" viewBox="0 0 69.69 79.37"><defs><style>.cls-1{fill:#f7bc00;}</style></defs><path class="cls-1" d="M47.53,30.21a3.7,3.7,0,0,0-1.16-.39c-1.84-.3-3.69-.6-5.55-.82a1.55,1.55,0,0,1-1.41-.91c-.93-1.86-1.91-3.7-2.95-5.49s-2.72-1.76-3.72,0-2,3.81-3,5.7a1.26,1.26,0,0,1-.74.56c-1.25.25-2.52.4-3.77.65a27.93,27.93,0,0,0-3.39.83A1.55,1.55,0,0,0,21,32.79,5.55,5.55,0,0,0,21.81,34c1.29,1.36,2.59,2.72,3.94,4a1.56,1.56,0,0,1,.5,1.61c-.38,2-.66,4-1,6.25A6.67,6.67,0,0,0,26,47.46a1.72,1.72,0,0,0,2.25.37c1.78-.86,3.57-1.72,5.32-2.66a2,2,0,0,1,2-.06c1.15.56,2.29,1.14,3.46,1.64a20.92,20.92,0,0,0,3,1.08A1.5,1.5,0,0,0,44,46.48a4.63,4.63,0,0,0,0-1.23c-.28-2-.55-3.94-.9-5.89A1.38,1.38,0,0,1,43.53,38c1.56-1.6,3.11-3.22,4.61-4.88A1.76,1.76,0,0,0,47.53,30.21Z"/><path class="cls-1" d="M68.79,36.41c1.22-1.68,1.2-2-.05-3.67-.15-.21-.31-.4-.46-.6-.67-.9-1.38-1.77-2-2.7a1.46,1.46,0,0,1-.13-1.07c.37-1.36.86-2.69,1.24-4.06.44-1.6.31-1.94-1-2.88-1-.67-2-1.3-3-1.94a2.34,2.34,0,0,1-1.15-1.91c-.08-1.49-.25-3-.3-4.45a1.63,1.63,0,0,0-1.34-1.65c-.22-.07-.43-.15-.65-.2-1.25-.3-2.49-.62-3.74-.86a1.85,1.85,0,0,1-1.58-1.37,33.49,33.49,0,0,0-1.36-3.43C52.55,4.14,52,3.87,50.41,4.08c-1.31.17-2.62.36-3.93.59a1.19,1.19,0,0,1-1.24-.43c-1-1.12-2-2.21-3-3.29S40.86-.24,39.51.39s-2.75,1.43-4.1,2.19a1,1,0,0,1-1.06,0c-1.42-.78-2.88-1.49-4.3-2.26A1.82,1.82,0,0,0,27.6.81C26.53,2,25.43,3.1,24.38,4.28a1.08,1.08,0,0,1-1.13.37C21.83,4.41,20.4,4.22,19,4a2.05,2.05,0,0,0-2.42,1.42c-.58,1.41-1.2,2.81-1.78,4.23a1.06,1.06,0,0,1-.86.72c-1.55.3-3.08.68-4.61,1.06-1.16.3-1.43.65-1.54,1.87-.14,1.5-.29,3-.36,4.51a1.9,1.9,0,0,1-1.07,1.68c-1.16.69-2.29,1.42-3.41,2.16a1.81,1.81,0,0,0-.81,2.15c.38,1.27.69,2.57,1.19,3.79a2.49,2.49,0,0,1-.52,2.81c-.86,1-1.65,2.13-2.43,3.23a1.62,1.62,0,0,0,0,2.09c1,1.32,2,2.67,3,4a1,1,0,0,1,.18,1c-.49,1.4-.88,2.84-1.4,4.23a2.1,2.1,0,0,0,.88,2.72c1.07.74,2.16,1.47,3.28,2.12a2,2,0,0,1,1.09,1.76c.07,1.37.19,2.73.28,4.1s.32,1.87,1.81,2.26,3,.63,4.55,1a1.12,1.12,0,0,1,.63.49,2.72,2.72,0,0,1-.11,3.35,5.25,5.25,0,0,0-.36.66c-1.47,2.69-2.94,5.37-4.39,8.07a2,2,0,0,0-.3,1c.05.92.7,1.38,1.68,1.19,1.7-.35,3.38-.76,5.08-1.13,1.14-.25,1.15-.24,1.47.85.48,1.62.93,3.25,1.39,4.88a1.29,1.29,0,0,0,1.17,1.07,1.34,1.34,0,0,0,1.42-.83Q23.91,74.76,26,71l1.33-2.37a12.46,12.46,0,0,1,1.21.56,1,1,0,0,0,1.19,0c1.47-.83,3-1.59,4.46-2.42a1.12,1.12,0,0,1,1.25,0c1.19.68,2.41,1.29,3.62,1.94a2.47,2.47,0,0,0,2.77.11l.47.79c1.61,2.76,3.2,5.53,4.83,8.28.43.72.85,1.58,1.91,1.39s1.08-1.1,1.31-1.83c.46-1.48.85-3,1.22-4.49.14-.58.35-.73.94-.58,1.86.48,3.72.94,5.6,1.32a1.7,1.7,0,0,0,1.2-.39,1.1,1.1,0,0,0,.2-1.54q-2.64-4.73-5.23-9.47a1.39,1.39,0,0,1-.1-1c.93-2.54.45-2.08,3.09-2.74,1.07-.26,2.13-.5,3.19-.8a1.7,1.7,0,0,0,1.39-1.65c.07-1.42.25-2.83.25-4.24a2.25,2.25,0,0,1,1.32-2.22A38.53,38.53,0,0,0,67,47.29a1.25,1.25,0,0,0,.5-1.51c-.49-1.66-.94-3.33-1.45-5a1,1,0,0,1,.19-1.12C67.14,38.61,68,37.52,68.79,36.41ZM34.62,57.05A22.35,22.35,0,1,1,57,34.77,22.48,22.48,0,0,1,34.62,57.05Z"/></svg>