<svg xmlns="http://www.w3.org/2000/svg" viewBox="0 0 77.4 79.37"><defs><style>.cls-1{fill:#0d1b47;}</style></defs><g id="Layer_2" data-name="Layer 2"><g id="Layer_1-2" data-name="Layer 1"><path class="cls-1" d="M45.91,79.37H31.49a5.39,5.39,0,0,1-5.37-4.7L25,67.15a29.86,29.86,0,0,1-3.27-1.9l-7.24,2.91A5.46,5.46,0,0,1,7.9,65.69L.73,53.29a5.47,5.47,0,0,1,1.33-7l6-4.72c0-.67-.07-1.3-.07-1.9s0-1.24.07-1.91l-6-4.71a5.44,5.44,0,0,1-1.32-7L7.94,13.6a5.39,5.39,0,0,1,6.67-2.35l7.17,2.88A29.7,29.7,0,0,1,25,12.22l1.09-7.59A5.37,5.37,0,0,1,31.49,0H45.91a5.39,5.39,0,0,1,5.37,4.7l1.08,7.52a31,31,0,0,1,3.28,1.9l7.24-2.91a5.47,5.47,0,0,1,6.63,2.47l7.16,12.4a5.46,5.46,0,0,1-1.33,7l-6,4.72c0,.6.07,1.24.07,1.91s0,1.3-.07,1.9l6,4.71a5.46,5.46,0,0,1,1.39,6.92L69.46,65.77a5.37,5.37,0,0,1-6.67,2.35l-7.17-2.88a28.79,28.79,0,0,1-3.26,1.91l-1.09,7.59A5.37,5.37,0,0,1,45.91,79.37ZM44.08,73.7s0,0,0,.07Zm-10.77-.06v.07A.17.17,0,0,0,33.31,73.64Zm-.22-1.54H44.31l1.44-10,1.92-.79A23.88,23.88,0,0,0,53,58.23L54.6,57,64,60.76,69.58,51l-7.95-6.22.25-2a23.78,23.78,0,0,0,.23-3.08,23.8,23.8,0,0,0-.23-3.09l-.25-2,7.95-6.22L64,18.61l-9.39,3.77-1.65-1.27a22.49,22.49,0,0,0-5.25-3.05l-1.92-.78-1.44-10H33.09l-1.43,10-1.93.78a24.27,24.27,0,0,0-5.29,3.08l-1.63,1.23-9.37-3.76L7.82,28.34l8,6.22-.26,2a25.2,25.2,0,0,0-.22,3.09,25.19,25.19,0,0,0,.22,3.08l.26,2L7.82,51l5.62,9.73L22.83,57l1.65,1.27a22.7,22.7,0,0,0,5.25,3.05l1.93.79Zm30.08-10a.59.59,0,0,0,0,.08Zm-49-.07,0,.07A.43.43,0,0,0,14.19,62.06ZM7,29.69l0,0ZM63.17,17.24s0,.05,0,.08Zm-48.9-.08,0,.08A.59.59,0,0,0,14.27,17.16ZM44.08,5.66s0,0,0,.07ZM33.33,5.6v.07S33.33,5.62,33.33,5.6Z"/><path class="cls-1" d="M49.6,36.24a4.09,4.09,0,1,0-4.09-4.09A4.08,4.08,0,0,0,49.6,36.24Zm-10.9,0a4.09,4.09,0,1,0-4.09-4.09A4.08,4.08,0,0,0,38.7,36.24Zm0,2.72c-3.17,0-9.54,1.6-9.54,4.77v2.05a1.38,1.38,0,0,0,1.37,1.36H46.88a1.37,1.37,0,0,0,1.36-1.36V43.73C48.24,40.56,41.88,39,38.7,39Zm10.9,0c-.39,0-.84,0-1.32.07,0,0,0,0,0,.06A5.64,5.64,0,0,1,51,43.73v2.05a4.09,4.09,0,0,1-.24,1.36h7.06a1.37,1.37,0,0,0,1.36-1.36V43.73C59.14,40.56,52.78,39,49.6,39Z"/><path class="cls-1" d="M27.8,36.24a4.09,4.09,0,1,1,4.09-4.09A4.07,4.07,0,0,1,27.8,36.24Z"/><path class="cls-1" d="M27.8,39c.4,0,.85,0,1.32.07,0,0,0,0-.05.06a5.64,5.64,0,0,0-2.63,4.64v2.05a4.09,4.09,0,0,0,.24,1.36h-7a1.38,1.38,0,0,1-1.37-1.36V43.73C18.26,40.56,24.63,39,27.8,39Z"/></g></g></svg>