<?xml version="1.0" encoding="utf-8"?>
<!-- Generator: Adobe Illustrator 24.1.0, SVG Export Plug-In . SVG Version: 6.00 Build 0)  -->
<svg version="1.1" id="Layer_1" xmlns="http://www.w3.org/2000/svg" xmlns:xlink="http://www.w3.org/1999/xlink" x="0px" y="0px"
	 viewBox="0 0 20 20" style="enable-background:new 0 0 20 20;" xml:space="preserve">
<style type="text/css">
	.st0{fill:#051948;}
</style>
<g id="Group_113" transform="translate(0 0)">
	<path id="Path_60" class="st0" d="M0,9.7c0.1-0.2,0.2-0.3,0.3-0.4C1,8.7,1.6,8,2.2,7.4c0.6-0.5,1.4-0.9,2.2-1
		c0.3-0.1,0.6,0,0.9,0.1l-2.4,3.7c-0.7-0.1-1.4,0-2.1,0.2c-0.4,0.1-0.6,0-0.8-0.4L0,9.7z"/>
	<path id="Path_61" class="st0" d="M10,20c-0.4-0.2-0.5-0.4-0.4-0.9c0.1-0.6,0.1-1.1,0.2-1.7c0-0.2,0.1-0.4,0.3-0.5
		c1.1-0.7,2.2-1.4,3.3-2.1c0,0,0.1-0.1,0.1-0.1c0.1,0.2,0.1,0.5,0.1,0.8c-0.1,0.9-0.5,1.8-1.2,2.5c-0.6,0.6-1.2,1.2-1.8,1.8
		c-0.1,0.1-0.2,0.1-0.3,0.2L10,20z"/>
	<path id="Path_62" class="st0" d="M19.1,6c-0.3,0.8-0.7,1.6-1.2,2.3c-1.3,2-2.9,3.7-4.8,5.1c-0.9,0.7-1.9,1.3-2.9,2
		c-0.1,0.1-0.2,0.1-0.2,0c0,0,0,0,0,0c-0.4-0.4-0.8-0.8-1.1-1.1c-0.1-0.1-0.1-0.2-0.1-0.3C9,13.6,9,13,9,12.5
		c-0.1-1-0.9-1.6-1.9-1.5c-0.4,0-0.7,0.1-1.1,0.2c-0.1,0-0.2,0-0.3-0.1c-0.4-0.4-0.7-0.7-1.1-1.1c-0.1-0.1-0.1-0.2,0-0.2
		c0,0,0,0,0,0C6.1,7.3,8,4.9,10.4,3.1c1.1-0.8,2.3-1.6,3.5-2.1c0,0,0.1,0,0.1,0C14.7,3.7,16.4,5.4,19.1,6z M10,7.1
		c0,1.6,1.3,2.9,2.9,2.9c1.6,0,2.9-1.3,2.9-2.9c0-1.6-1.3-2.9-2.9-2.9C11.3,4.2,10,5.5,10,7.1C10,7.1,10,7.1,10,7.1L10,7.1z"/>
	<path id="Path_63" class="st0" d="M15.2,0.5C16.6,0.1,18-0.1,19.5,0c0.3,0,0.5,0.2,0.5,0.5c0.1,1.4,0,2.9-0.4,4.3
		C17.5,4.7,15.4,2.6,15.2,0.5z"/>
	<path id="Path_64" class="st0" d="M7,12.2c0.6,0,0.8,0.3,0.8,0.8c0,0.6-0.3,1.1-0.6,1.5c-1.1,1.1-2.2,2.2-3.6,2.9
		c-0.1,0.1-0.3,0.1-0.4,0.2c-0.3,0.2-0.6,0.1-0.8-0.2c-0.1-0.2-0.1-0.4,0-0.6c0.4-0.8,0.9-1.5,1.4-2.1c0.5-0.6,1.1-1.2,1.6-1.8
		C5.9,12.5,6.4,12.2,7,12.2z"/>
	<path id="Path_65" class="st0" d="M8.1,15.3L9,16.2c-0.2,0.1-0.4,0.2-0.6,0.3c-0.3,0.2-0.7,0.3-1,0.5c-0.4,0.2-0.7,0.2-1-0.2
		L8.1,15.3z"/>
	<path id="Path_66" class="st0" d="M3.2,13.6c-0.3-0.3-0.4-0.5-0.2-0.9c0.3-0.6,0.6-1.1,0.9-1.7l0.9,0.9L3.2,13.6z"/>
	<path id="Path_68" class="st0" d="M12.9,8.9c-1,0-1.7-0.8-1.7-1.8c0-1,0.8-1.7,1.8-1.7c1,0,1.8,0.8,1.8,1.8
		C14.7,8.1,13.9,8.9,12.9,8.9C12.9,8.9,12.9,8.9,12.9,8.9z"/>
</g>
</svg>
